/* XPM */
static char *coin16x16[] = {
/* columns rows colors chars-per-pixel */
"16 16 45 1 ",
"  c #3D2C3E",
". c #3B3B3B",
"X c #3F3F3F",
"o c #412843",
"O c #442B46",
"+ c #472749",
"@ c #403240",
"# c #403E40",
"$ c #463847",
"% c #4D364E",
"& c #473E48",
"* c #4A3B4B",
"= c #483F49",
"- c #4A3D4B",
"; c #4A3E4B",
": c #4C394D",
"> c #4D3D4E",
", c #512E53",
"< c #513453",
"1 c #5D325F",
"2 c #5C345E",
"3 c #5B3A5D",
"4 c #5F3362",
"5 c #5E3F60",
"6 c #603362",
"7 c #613363",
"8 c #653967",
"9 c #69396C",
"0 c #6B3A6E",
"q c #6B3D6E",
"w c #753F79",
"e c #424142",
"r c #444045",
"t c #464546",
"y c #464646",
"u c #474448",
"i c #484149",
"p c #524253",
"a c #564857",
"s c #5C415D",
"d c #5E475F",
"f c #545454",
"g c #565656",
"h c #626262",
"j c #737273",
/* pixels */
"jhhhhhhhhhhhhhhg",
"hyyyyyyyyyyyyyyX",
"hyyyyyyy#yyyyyyX",
"hyyyyyyy yyyyyyX",
"hyyyyyy$o>yyyyyX",
"hyyyyyys9:yyyyyX",
"hyyyyyy37@yyyyyX",
"hyyyyyy1+=yyyyyX",
"hyyyyy%28=yyyyyX",
"hyyyyypw,&yyyyyX",
"hyyyyy5q4&yyyyyX",
"hyyyyaO94dyyyyyX",
"hyyyyei<=*yyyyyX",
"hyyyyyyiyyyyyyyX",
"hyyyyyyyyyyyyyyX",
"fXXeXXXX##XXXXX."
};
