/* XPM */
static char *coin32x32[] = {
/* columns rows colors chars-per-pixel */
"32 32 120 2 ",
"   c #371D39",
".  c #2A232B",
"X  c #2D272E",
"o  c #312032",
"O  c #312432",
"+  c #39273A",
"@  c #3B233D",
"#  c #3C203D",
"$  c #3B243C",
"%  c #3B253C",
"&  c gray20",
"*  c #383038",
"=  c gray22",
"-  c #393939",
";  c #3B3A3B",
":  c #3E3A3E",
">  c #3F2641",
",  c #3F3B40",
"<  c #412442",
"1  c #422443",
"2  c #422943",
"3  c #422C43",
"4  c #432A44",
"5  c #48264A",
"6  c #4A264C",
"7  c #472849",
"8  c #472A48",
"9  c #472D49",
"0  c #49284B",
"q  c #4B284D",
"w  c #4D2E4F",
"e  c #413541",
"r  c #453746",
"t  c #423943",
"y  c #423D42",
"u  c #443F45",
"i  c #453F46",
"p  c #4A304C",
"a  c #4B314D",
"s  c #473948",
"d  c #4C3C4D",
"f  c #502752",
"g  c #512A53",
"h  c #522E54",
"j  c #522E55",
"k  c #552F57",
"l  c #562C59",
"z  c #582A5A",
"x  c #592D5B",
"c  c #4F3D51",
"v  c #503652",
"b  c #543256",
"n  c #503B51",
"m  c #513853",
"M  c #533F54",
"N  c #58315A",
"B  c #58325A",
"V  c #58335A",
"C  c #59325B",
"Z  c #5B305D",
"A  c #5A335C",
"S  c #5A345C",
"D  c #5D375F",
"F  c #5A3A5C",
"G  c #5C3C5E",
"H  c #5D3360",
"J  c #5F3261",
"K  c #5F3962",
"L  c #612D64",
"P  c #613364",
"I  c #633365",
"U  c #613564",
"Y  c #623665",
"T  c #643467",
"R  c #603862",
"E  c #643867",
"W  c #663269",
"Q  c #68336B",
"!  c #6B346D",
"~  c #69376C",
"^  c #68396B",
"/  c #6B3B6E",
"(  c #6C3A6F",
")  c #6B3E6E",
"_  c #6C3C6E",
"`  c #6C3E6F",
"'  c #6E3A71",
"]  c #703973",
"[  c #713B74",
"{  c #713D74",
"}  c #713F74",
"|  c #753F78",
" . c #464646",
".. c #474148",
"X. c #484149",
"o. c #484449",
"O. c #4A444B",
"+. c #4C464D",
"@. c #4F454F",
"#. c #554157",
"$. c #534A54",
"%. c #584759",
"&. c #565656",
"*. c #5C5C5C",
"=. c #614063",
"-. c #6B496D",
";. c #6F4072",
":. c #704173",
">. c #704773",
",. c #714074",
"<. c #744077",
"1. c #744276",
"2. c #77437B",
"3. c #7B427F",
"4. c #7A467D",
"5. c gray49",
"6. c #7D4481",
"7. c #7E5082",
"8. c #844A87",
"9. c #8D8A8D",
/* pixels */
"9.5.5.5.5.5.5.5.5.5.5.5.5.5.5.5.5.5.5.5.5.5.5.5.5.5.5.5.5.5.5.*.",
"5. . . . . . . . . . . . . . . . . . . . . . . . . . . . . . .= ",
"5. . . . . . . . . . . . . . . . . . . . . . . . . . . . . . .= ",
"5. . . . . . . . . . . . . . . . . . . . . . . . . . . . . . .= ",
"5. . . . . . . . . . . . . . . . . . . . . . . . . . . . . . .= ",
"5. . . . . . . . . . . . . . . . .X  . . . . . . . . . . . . .= ",
"5. . . . . . . . . . . . . . . .c .  . . . . . . . . . . . . .= ",
"5. . . . . . . . . . . . . . ...p o  . . . . . . . . . . . . .= ",
"5. . . . . . . . . . . . . . .p 4 2 m  . . . . . . . . . . . .= ",
"5. . . . . . . . . . . . . . .< % 8 N  . . . . . . . . . . . .= ",
"5. . . . . . . . . . . . . . .4.J [ g  . . . . . . . . . . . .= ",
"5. . . . . . . . . . . . . .y ' / / j  . . . . . . . . . . . .= ",
"5. . . . . . . . . . . . . .u <.,./    . . . . . . . . . . . .= ",
"5. . . . . . . . . . . . . .F Z z f #  . . . . . . . . . . . .= ",
"5. . . . . . . . . . . . . .J _ 0 < r  . . . . . . . . . . . .= ",
"5. . . . . . . . . . . . . .j l q 5 n  . . . . . . . . . . . .= ",
"5. . . . . . . . . . . .#.r ,.x ^ U k  . . . . . . . . . . . .= ",
"5. . . . . . . . . . . .v a / $ >.N s  . . . . . . . . . . . .= ",
"5. . . . . . . . . . . . .=.4.Q _ < .. . . . . . . . . . . . .= ",
"5. . . . . . . . . . . . .G 3.2.S % e  . . . . . . . . . . . .= ",
"5. . . . . . . . . . . . .! D ;.Z U o. . . . . . . . . . . . .= ",
"5. . . . . . . . . . . .r 8.{ { E L 9 o. . . . . . . . . . . .= ",
"5. . . . . . . . . . .+.R 8 4.R V Q -. . . . . . . . . . . . .= ",
"5. . . . . . . . . . .8.o % ' W T V <.$. . . . . . . . . . . .= ",
"5. . . . . . . . . . .* = #.U 3 b t 6 %. . . . . . . . . . . .= ",
"5. . . . . . . . . . . . .+.U : +. .y  . . . . . . . . . . . .= ",
"5. . . . . . . . . . . . . .d  . . . . . . . . . . . . . . . .= ",
"5. . . . . . . . . . . . . . . . . . . . . . . . . . . . . . .= ",
"5. . . . . . . . . . . . . . . . . . . . . . . . . . . . . . .= ",
"5. . . . . . . . . . . . . . . . . . . . . . . . . . . . . . .= ",
"5. . . . . . . . . . . . . . . . . . . . . . . . . . . . . . .= ",
"&.= = = = = = = = = = = = = = = = = = = = = = = = = = = = = = & "
};
