/* XPM */
static char *_8fd28823fa5483699731b28655e4b1evIrl8hMWtIJPBj3y[] = {
/* columns rows colors chars-per-pixel */
"64 64 99 2 ",
"   c #171218",
".  c #1B141B",
"X  c #1D191E",
"o  c #1F1720",
"O  c #241425",
"+  c #241A24",
"@  c #271A28",
"#  c #2B1B2C",
"$  c #2F1A30",
"%  c #331D35",
"&  c #361A38",
"*  c #3A1E3B",
"=  c gray18",
"-  c #342135",
";  c #372038",
":  c #3B243C",
">  c #3A2B3B",
",  c #3E1C41",
"<  c #3F2341",
"1  c #3F2840",
"2  c #441E46",
"3  c #461F48",
"4  c #432345",
"5  c #432B45",
"6  c #472448",
"7  c #4A234C",
"8  c #462E48",
"9  c #4A2E4C",
"0  c #4A314C",
"q  c #4F2551",
"w  c #4E2B50",
"e  c #522654",
"r  c #532B55",
"t  c #562658",
"y  c #572C59",
"u  c #5C2D5F",
"i  c #4E3150",
"p  c #4E3C50",
"a  c #533356",
"s  c #543956",
"d  c #563358",
"f  c #5B345E",
"g  c #553C58",
"h  c #5B3C5E",
"j  c #5E2D61",
"k  c #5E3361",
"l  c #622E64",
"z  c #623464",
"x  c #633A65",
"c  c #663269",
"v  c #6A346D",
"b  c #663B68",
"n  c #6A3C6D",
"m  c #6D3471",
"M  c #6E3C71",
"N  c #723674",
"B  c #723D75",
"V  c #753A78",
"C  c #763E79",
"Z  c #793C7C",
"A  c gray26",
"S  c #464646",
"D  c #58405A",
"F  c #5C415E",
"G  c #5F4461",
"H  c #69426B",
"J  c #6A436D",
"K  c #6F4872",
"L  c #734076",
"P  c #744C77",
"I  c #77437A",
"U  c #764479",
"Y  c #79407C",
"T  c #78477C",
"R  c #78497B",
"E  c #7A497E",
"W  c #7C4F7F",
"Q  c #7B557D",
"!  c #7C4080",
"~  c #7E4581",
"^  c #7F4A82",
"/  c #804584",
"(  c #844787",
")  c #814984",
"_  c #854A89",
"`  c #884D8B",
"'  c #894E8C",
"]  c #805883",
"[  c #86518A",
"{  c #8B518F",
"}  c #885F8B",
"|  c #8F5293",
" . c #905294",
".. c #925496",
"X. c #935C97",
"o. c #99629C",
"O. c #A363A7",
"+. c #B4B4B4",
"@. c #D4CDD4",
/* pixels */
"S @.+.+.+.+.+.+.+.+.+.+.+.+.+.+.+.+.+.+.+.+.+.+.+.+.+.+.+.+.+.+.+.+.+.+.+.+.+.+.+.+.+.+.+.+.+.+.+.+.+.+.+.+.+.+.+.+.+.+.+.+.+.S ",
"@.S S S S S S S S S S S S S S S S S S S S S S S S S S S S S S S S S S S S S S S S S S S S S S S S S S S S S S S S S S S S S S = ",
"+.S S S S S S S S S S S S S S S S S S S S S S S S S S S S S S S S S S S S S S S S S S S S S S S S S S S S S S S S S S S S S A = ",
"+.S S S S S S S S S S S S S S S S S S S S S S S S S S S S S S S S S S S S S S S S S S S S S S S S S S S S S S S S S S S S S A = ",
"+.S S S S S S S S S S S S S S S S S S S S S S S S S S S S S S S S S S S S S S S S S S S S S S S S S S S S S S S S S S S S S A = ",
"+.S S S S S S S S S S S S S S S S S S S S S S S S S S S S S S S S S S S S S S S S S S S S S S S S S S S S S S S S S S S S S A = ",
"+.S S S S S S S S S S S S S S S S S S S S S S S S S S S S S S S S S S S S S S S S S S S S S S S S S S S S S S S S S S S S S A = ",
"+.S S S S S S S S S S S S S S S S S S S S S S S S S S S S S S S S S S S S S S S S S S S S S S S S S S S S S S S S S S S S S A = ",
"+.S S S S S S S S S S S S S S S S S S S S S S S S S S S S S S S S S S S S S S S S S S S S S S S S S S S S S S S S S S S S S A = ",
"+.S S S S S S S S S S S S S S S S S S S S S S S S S S S S S S S S S S S S S S S S S S S S S S S S S S S S S S S S S S S S S A = ",
"+.S S S S S S S S S S S S S S S S S S S S S S S S S S S S S S S S S S X S S S S S S S S S S S S S S S S S S S S S S S S S S A = ",
"+.S S S S S S S S S S S S S S S S S S S S S S S S S S S S S S S S S >   S S S S S S S S S S S S S S S S S S S S S S S S S S A = ",
"+.S S S S S S S S S S S S S S S S S S S S S S S S S S S S S S S S D #   S S S S S S S S S S S S S S S S S S S S S S S S S S A = ",
"+.S S S S S S S S S S S S S S S S S S S S S S S S S S S S S S S F 5 o S S S S S S S S S S S S S S S S S S S S S S S S S S S A = ",
"+.S S S S S S S S S S S S S S S S S S S S S S S S S S S S S S S 0 5 @ + S S S S S S S S S S S S S S S S S S S S S S S S S S A = ",
"+.S S S S S S S S S S S S S S S S S S S S S S S S S S S S S S 0 9 s 5 - S S S S S S S S S S S S S S S S S S S S S S S S S S A = ",
"+.S S S S S S S S S S S S S S S S S S S S S S S S S S S S S : h 9 8 : 8 9 S S S S S S S S S S S S S S S S S S S S S S S S S A = ",
"+.S S S S S S S S S S S S S S S S S S S S S S S S S S S S S 1 s 5 ; 9 : n 9 S S S S S S S S S S S S S S S S S S S S S S S S A = ",
"+.S S S S S S S S S S S S S S S S S S S S S S S S S S S S S : : 8 : 8 ; L 4 S S S S S S S S S S S S S S S S S S S S S S S S A = ",
"+.S S S S S S S S S S S S S S S S S S S S S S S S S S S S S 4 7 1 # : z M : S S S S S S S S S S S S S S S S S S S S S S S S A = ",
"+.S S S S S S S S S S S S S S S S S S S S S S S S S S S S S z ..b < v ^ u 4 S S S S S S S S S S S S S S S S S S S S S S S S A = ",
"+.S S S S S S S S S S S S S S S S S S S S S S S S S S S S S T E c n l Y z 4 S S S S S S S S S S S S S S S S S S S S S S S S A = ",
"+.S S S S S S S S S S S S S S S S S S S S S S S S S S S S - U u C ' T v L ; S S S S S S S S S S S S S S S S S S S S S S S S A = ",
"+.S S S S S S S S S S S S S S S S S S S S S S S S S S S S S c ~ t f n k n % S S S S S S S S S S S S S S S S S S S S S S S S A = ",
"+.S S S S S S S S S S S S S S S S S S S S S S S S S S S S S n ' ) | O.b 4 $ S S S S S S S S S S S S S S S S S S S S S S S S A = ",
"+.S S S S S S S S S S S S S S S S S S S S S S S S S S S S 1 c I k d r e 6 O S S S S S S S S S S S S S S S S S S S S S S S S A = ",
"+.S S S S S S S S S S S S S S S S S S S S S S S S S S S S z C L v q 4 t 3 @ S S S S S S S S S S S S S S S S S S S S S S S S A = ",
"+.S S S S S S S S S S S S S S S S S S S S S S S S S S S d n q % 7 u j 6 6 : S S S S S S S S S S S S S S S S S S S S S S S S A = ",
"+.S S S S S S S S S S S S S S S S S S S S S S S S S S S y v z k 5 # 5 4 4 S S S S S S S S S S S S S S S S S S S S S S S S S A = ",
"+.S S S S S S S S S S S S S S S S S S S S S S S S S S S y x b ` B 2 % 5 5 S S S S S S S S S S S S S S S S S S S S S S S S S A = ",
"+.S S S S S S S S S S S S S S S S S S S S S S S S S S S 5 7 4 w 5 4 # 7 r S S S S S S S S S S S S S S S S S S S S S S S S S A = ",
"+.S S S S S S S S S S S S S S S S S S S S S S S S S S S 9 B c l r e w u z S S S S S S S S S S S S S S S S S S S S S S S S S A = ",
"+.S S S S S S S S S S S S S S S S S S S S S S S S S S S z ^ N u v N V v c 5 S S S S S S S S S S S S S S S S S S S S S S S S A = ",
"+.S S S S S S S S S S S S S S S S S S S S S S S f x 5 4 U J z % f M a r c 5 S S S S S S S S S S S S S S S S S S S S S S S S A = ",
"+.S S S S S S S S S S S S S S S S S S S S S S S 9 B w w R Y y # 8 J 9 f w S S S S S S S S S S S S S S S S S S S S S S S S S A = ",
"+.S S S S S S S S S S S S S S S S S S S S S S S S 1 : h 5 I 5 @ W X.x y 5 S S S S S S S S S S S S S S S S S S S S S S S S S A = ",
"+.S S S S S S S S S S S S S S S S S S S S S S S S S h I L _ M i b L f 6 S S S S S S S S S S S S S S S S S S S S S S S S S S A = ",
"+.S S S S S S S S S S S S S S S S S S S S S S S S S S n Z ! V M E k # * 5 S S S S S S S S S S S S S S S S S S S S S S S S S A = ",
"+.S S S S S S S S S S S S S S S S S S S S S S S S S S n ( ~ ! V U % @ ; : S S S S S S S S S S S S S S S S S S S S S S S S S A = ",
"+.S S S S S S S S S S S S S S S S S S S S S S S S S i B ! I J Y ^ < # x : S S S S S S S S S S S S S S S S S S S S S S S S S A = ",
"+.S S S S S S S S S S S S S S S S S S S S S S S S S j N n : 9 U ) 6 9 n S S S S S S S S S S S S S S S S S S S S S S S S S S A = ",
"+.S S S S S S S S S S S S S S S S S S S S S S S S S l Y J x B { f 5 M l S p S S S S S S S S S S S S S S S S S S S S S S S S A = ",
"+.S S S S S S S S S S S S S S S S S S S S S S S S % M | C C ! x w B m e + h i S S S S S S S S S S S S S S S S S S S S S S S A = ",
"+.S S S S S S S S S S S S S S S S S S S S S S S S a )  .C x ~ b b n m t w i S S S S S S S S S S S S S S S S S S S S S S S S A = ",
"+.S S S S S S S S S S S S S S S S S S S S S S S K B y b / T n 0 : 5 C l b S S S S S S S S S S S S S S S S S S S S S S S S S A = ",
"+.S S S S S S S S S S S S S S S S S S S S S S H n % # % I M x b B B v j U } S S S S S S S S S S S S S S S S S S S S S S S S A = ",
"+.S S S S S S S S S S S S S S S S S S S S S ] [ % @ O % v B B c v z R w z o.S S S S S S S S S S S S S S S S S S S S S S S S A = ",
"+.S S S S S S S S S S S S S S S S S S S S S ] L O S S 6 ! c t v l x b % 2 | Q S S S S S S S S S S S S S S S S S S S S S S S A = ",
"+.S S S S S S S S S S S S S S S S S S S S S S ; . S S k ( 7 6 w n 9 5 S & v P S S S S S S S S S S S S S S S S S S S S S S S A = ",
"+.S S S S S S S S S S S S S S S S S S S S S S . S S S J ~ , # S H % > S % r G S S S S S S S S S S S S S S S S S S S S S S S A = ",
"+.S S S S S S S S S S S S S S S S S S S S S S S S S S g L q O S G S S S S # S S S S S S S S S S S S S S S S S S S S S S S S A = ",
"+.S S S S S S S S S S S S S S S S S S S S S S S S S S S K y S S S S S S S S S S S S S S S S S S S S S S S S S S S S S S S S A = ",
"+.S S S S S S S S S S S S S S S S S S S S S S S S S S S s w S S S S S S S S S S S S S S S S S S S S S S S S S S S S S S S S A = ",
"+.S S S S S S S S S S S S S S S S S S S S S S S S S S S S S S S S S S S S S S S S S S S S S S S S S S S S S S S S S S S S S A = ",
"+.S S S S S S S S S S S S S S S S S S S S S S S S S S S S S S S S S S S S S S S S S S S S S S S S S S S S S S S S S S S S S A = ",
"+.S S S S S S S S S S S S S S S S S S S S S S S S S S S S S S S S S S S S S S S S S S S S S S S S S S S S S S S S S S S S S A = ",
"+.S S S S S S S S S S S S S S S S S S S S S S S S S S S S S S S S S S S S S S S S S S S S S S S S S S S S S S S S S S S S S A = ",
"+.S S S S S S S S S S S S S S S S S S S S S S S S S S S S S S S S S S S S S S S S S S S S S S S S S S S S S S S S S S S S S A = ",
"+.S S S S S S S S S S S S S S S S S S S S S S S S S S S S S S S S S S S S S S S S S S S S S S S S S S S S S S S S S S S S S A = ",
"+.S S S S S S S S S S S S S S S S S S S S S S S S S S S S S S S S S S S S S S S S S S S S S S S S S S S S S S S S S S S S S A = ",
"+.S S S S S S S S S S S S S S S S S S S S S S S S S S S S S S S S S S S S S S S S S S S S S S S S S S S S S S S S S S S S S A = ",
"+.S S S S S S S S S S S S S S S S S S S S S S S S S S S S S S S S S S S S S S S S S S S S S S S S S S S S S S S S S S S S S S = ",
"+.S A A A A A A A A A A A A A A A A A A A A A A A A A A A A A A A A A A A A A A A A A A A A A A A A A A A A A A A A A A A A A = ",
"= = = = = = = = = = = = = = = = = = = = = = = = = = = = = = = = = = = = = = = = = = = = = = = = = = = = = = = = = = = = = = = = "
};
