/* XPM */
static char *_54361e1cac54650f6a5f296d5d548efTDjL6T8LEDuazQ4f[] = {
/* columns rows colors chars-per-pixel */
"64 64 183 2 ",
"   c #15092D",
".  c #150D36",
"X  c #15113E",
"o  c gray18",
"O  c #151343",
"+  c #16194F",
"@  c #171D56",
"#  c #171D59",
"$  c #17215F",
"%  c #221F6B",
"&  c #311E7A",
"*  c #172263",
"=  c #18256B",
"-  c #1A2974",
";  c #1C2C7B",
":  c #202471",
">  c #26277D",
",  c #2B237C",
"<  c #23297E",
"1  c gray26",
"2  c #464646",
"3  c #351F80",
"4  c #1D2E81",
"5  c #1F3086",
"6  c #1F3088",
"7  c #2B2783",
"8  c #232C83",
"9  c #252D89",
"0  c #2B2B8D",
"q  c #312283",
"w  c #20328C",
"e  c #292F91",
"r  c #312D97",
"t  c #223493",
"y  c #24379B",
"u  c #2B339B",
"i  c #24389E",
"p  c #263AA4",
"a  c #283AA7",
"s  c #273CA9",
"d  c #293DAE",
"f  c #2A3FB3",
"g  c #2B3FB8",
"h  c #2A40B5",
"j  c #2C42BB",
"k  c #2762B3",
"l  c #2E45C3",
"z  c #2D49C7",
"x  c #2F47C9",
"c  c #2F4BCE",
"v  c #3043C2",
"b  c #3147CE",
"n  c #3049CE",
"m  c #2B5BC9",
"M  c #314BD3",
"N  c #334EDC",
"B  c #2F5AD6",
"V  c #2E5FDF",
"C  c #3254DE",
"Z  c #2B64CF",
"A  c #2B6CDC",
"S  c #2E72DD",
"D  c #257DDD",
"F  c #2B7CDC",
"G  c #3674DE",
"H  c #344FE0",
"J  c #2F5EE0",
"K  c #3352E0",
"L  c #325BE1",
"P  c #2D64E0",
"I  c #2C6AE1",
"U  c #3163E2",
"Y  c #316BE4",
"T  c #2B73E2",
"R  c #247EE0",
"E  c #2D7AE3",
"W  c #4964D9",
"Q  c #4879DC",
"!  c #5372D8",
"~  c #6A65D6",
"^  c #7363D5",
"/  c #7A66D3",
"(  c #7F6DD4",
")  c #7A71D5",
"_  c #727DDB",
"`  c #8C5DCE",
"'  c #9455C9",
"]  c #9851CB",
"[  c #8761CE",
"{  c #8B63D0",
"}  c #816CD3",
"|  c #1F8DDF",
" . c #228AC1",
".. c #2397CD",
"X. c #268BD7",
"o. c #2A8BD7",
"O. c #2383DD",
"+. c #228CDC",
"@. c #2A8EDB",
"#. c #308FDA",
"$. c #2492DF",
"%. c #2993DC",
"&. c #339ADB",
"*. c #27A5DE",
"=. c #1F8DE0",
"-. c #1F91E1",
";. c #2383E1",
":. c #2C83E4",
">. c #218CE0",
",. c #2B8BE3",
"<. c #2C84E8",
"1. c #2C8BE9",
"2. c #2294E5",
"3. c #239BE4",
"4. c #2A9BE2",
"5. c #2C91EA",
"6. c #229CE8",
"7. c #1FAAE5",
"8. c #1EBAE4",
"9. c #22A3E6",
"0. c #25ACE5",
"q. c #26A4E9",
"w. c #22ABEC",
"e. c #29A9EC",
"r. c #3EAFEE",
"t. c #25B4EB",
"y. c #2EB5EA",
"u. c #26B9E8",
"i. c #23BDEC",
"p. c #36ABF1",
"a. c #27B5F1",
"s. c #25BCF3",
"d. c #27BDF8",
"f. c #3BB7F2",
"g. c #4785DA",
"h. c #6C86D7",
"j. c #5CA4DD",
"k. c #50B0DF",
"l. c #5488E1",
"z. c #5896E6",
"x. c #589AE4",
"c. c #569CE9",
"v. c #589AE9",
"b. c #6985E0",
"n. c #4AA5EA",
"m. c #56A0E4",
"M. c #48B6E3",
"N. c #61B0E2",
"B. c #1FD2E7",
"V. c #1ED5E9",
"C. c #24C5E7",
"Z. c #24C6EC",
"A. c #23CBE9",
"S. c #2ADCE7",
"D. c #20D5EB",
"F. c #22DBEB",
"G. c #36D0E7",
"H. c #2BC7F6",
"J. c #23CBF3",
"K. c #24CCFA",
"L. c #2CCCFA",
"P. c #33C6F6",
"I. c #33CBF8",
"U. c #22D4F1",
"Y. c #2BD0F6",
"T. c #22DEF4",
"R. c #26D2FB",
"E. c #25D5FB",
"W. c #25D3FD",
"Q. c #29D0FA",
"!. c #33D0F7",
"~. c #3AD1F6",
"^. c #34D1F8",
"/. c #39D1F8",
"(. c #1EF4EE",
"). c #21E2EF",
"_. c #20ECEC",
"`. c #31E5E6",
"'. c #20F0EF",
"]. c #22E4F4",
"[. c #20ECF0",
"{. c #B4B4B4",
"}. c #D4CDD4",
/* pixels */
"2 }.{.{.{.{.{.{.{.{.{.{.{.{.{.{.{.{.{.{.{.{.{.{.{.{.{.{.{.{.{.{.{.{.{.{.{.{.{.{.{.{.{.{.{.{.{.{.{.{.{.{.{.{.{.{.{.{.{.{.{.{.{.2 ",
"}.2 2 2 2 2 2 2 2 2 2 2 2 2 2 2 2 2 2 2 2 2 2 2 2 2 2 2 2 2 2 2 2 2 2 2 2 2 2 2 2 2 2 2 2 2 2 2 2 2 2 2 2 2 2 2 2 2 2 2 2 2 2 o ",
"{.2 2 2 2 2 2 2 2 2 2 2 2 2 2 2 2 2 2 2 2 2 2 2 2 2 2 2 2 2 2 2 2 2 2 2 2 2 2 2 2 2 2 2 2 2 2 2 2 2 2 2 2 2 2 2 2 2 2 2 2 2 1 o ",
"{.2 2 2 2 2 2 2 2 2 2 2 2 2 2 2 2 2 2 2 2 2 2 2 2 2 2 2 2 2 2 2 2 2 2 2 2 2 2 2 2 2 2 2 2 2 2 2 2 2 2 2 2 2 2 2 2 2 2 2 2 2 1 o ",
"{.2 2 2 2 2 2 2 2 2 2 2 2 2 2 2 2 2 2 2 2 2 2 2 2 2 2 L.Q.Q.Q.Q.2 2 2 2 2 2 2 2 2 2 2 2 2 2 2 2 2 2 2 2 2 2 2 2 2 2 2 2 2 2 1 o ",
"{.2 2 2 2 2 2 2 2 2 2 2 2 2 2 2 2 2 2 2 2 2 2 2 2 2 ~.W.W.W.Q.Q.!.2 2 2 2 2 2 2 2 2 2 2 2 2 2 2 2 2 2 2 2 2 2 2 2 2 2 2 2 2 1 o ",
"{.2 2 2 2 2 2 2 2 2 2 2 2 2 2 2 2 2 2 2 2 2 2 2 2 2 !.R.R.K.Q.2 R.t.2 2 2 2 2 2 2 2 2 2 2 2 2 2 2 2 2 2 2 2 2 2 2 2 2 2 2 2 1 o ",
"{.2 2 2 2 2 2 2 2 2 2 2 2 2 2 2 2 2 2 2 2 2 2 2 2 2 2 2 2 9.H.2 W.K.3.2 2 2 2 2 2 2 2 2 2 2 2 2 2 2 2 2 2 2 2 2 2 2 2 2 2 2 1 o ",
"{.2 2 2 2 2 2 2 2 2 2 2 2 2 2 2 2 2 2 2 2 2 2 2 2 2 2 2 o.| 2.t.E.E.3.o.2 2 2 2 2 2 2 2 2 2 2 2 2 2 2 2 2 2 2 2 2 2 2 2 2 2 1 o ",
"{.2 2 2 2 2 2 2 2 2 2 2 2 2 2 2 2 2 2 2 2 2 2 2 2 2 2 @.+.=.=.2.J.(.7.+.2 2 2 2 2 2 2 2 2 2 2 2 2 2 2 2 2 2 2 2 2 2 2 2 2 2 1 o ",
"{.2 2 2 2 2 2 2 2 2 2 2 2 2 2 2 2 2 2 2 2 2 2 2 2 2 2 2 X.=.=.R <.).U.2.+.X.2 2 2 2 2 2 2 2 2 2 2 2 2 2 2 2 2 2 2 2 2 2 2 2 1 o ",
"{.2 2 2 2 2 2 2 2 2 2 2 2 2 2 2 2 2 2 2 2 2 2 2 2 2 2 +.+.;.;.P K t.(.t.=.@.2 2 2 2 2 2 2 2 2 2 2 2 2 2 2 2 2 2 2 2 2 2 2 2 1 o ",
"{.2 2 2 2 2 2 2 2 2 2 2 2 2 2 2 2 2 2 2 2 2 2 2 2 2 X.+.;.J K K H 5.'.B.-.+.2 2 2 2 2 2 2 2 2 2 2 2 2 2 2 2 2 2 2 2 2 2 2 2 1 o ",
"{.2 2 2 2 2 2 2 2 2 2 2 2 2 2 2 2 2 2 2 2 2 2 2 2 X.+.>.I K K K K L t.].6.=.2 2 2 2 2 2 2 2 2 2 2 2 2 2 2 2 2 2 2 2 2 2 2 2 1 o ",
"{.2 2 2 2 2 2 2 2 2 2 2 2 2 2 2 2 2 2 2 2 2 2 2 2 +.=.T K K K K N N E ].:.;.+.2 2 2 2 2 2 2 2 2 2 2 2 2 2 2 2 2 2 2 2 2 2 2 1 o ",
"{.2 2 2 2 2 2 2 2 2 2 2 2 2 2 2 2 2 2 2 2 2 2 2 2 +.R C H K N N M b S _.3.>.+.2 2 2 2 2 2 2 2 2 2 2 2 2 2 2 2 2 2 2 2 2 2 2 1 o ",
"{.2 2 2 2 2 2 2 2 2 2 2 2 2 2 2 2 2 2 2 2 2 2 2 2 >.I Y L H n j j j m A.U.>.+.2 2 2 2 2 2 2 2 2 2 2 2 2 2 2 2 2 2 2 2 2 2 2 1 o ",
"{.2 2 2 2 2 2 2 2 2 2 2 2 2 2 2 2 2 2 2 2 2 2 2 +.-.1.J.1.M l h h h g ..i.I =.X.2 2 2 2 2 2 2 2 2 2 2 2 2 2 2 2 2 2 2 2 2 2 1 o ",
"{.2 2 2 2 2 2 2 2 2 2 2 2 2 2 2 2 2 2 2 2 2 2 2 +.w.T._.,.l h p i y i  .,.J ;.X.2 2 2 2 2 2 2 2 2 2 2 2 2 2 2 2 2 2 2 2 2 2 1 o ",
"{.2 2 2 2 2 2 2 2 2 2 2 2 2 2 2 2 2 2 2 2 2 2 #.2.i.'.0.C l s y i i i  .:.N I O.2 2 2 2 2 2 2 2 2 2 2 2 2 2 2 2 2 2 2 2 2 2 1 o ",
"{.2 2 2 2 2 2 2 2 2 2 2 2 2 2 2 2 2 2 2 2 2 2 @.3.T.A.U l s y i i t 0 k Z N K F 2 ^.2 2 2 2 2 2 2 2 2 2 2 2 2 2 2 2 2 2 2 2 1 o ",
"{.2 2 2 2 2 2 2 2 2 2 2 2 2 2 2 2 2 2 2 2 2 2 +.w.[.,.M p t y t t 0 q 0 h N J O.2 /.2 2 2 2 2 2 2 2 2 2 2 2 2 2 2 2 2 2 2 2 1 o ",
"{.2 2 2 2 2 2 2 2 2 2 2 2 2 2 2 2 2 2 2 2 2 2 >.J.(.<.l t p t ; ; w e 7 f N T +.2 ^.2 2 2 2 2 2 2 2 2 2 2 2 2 2 2 2 2 2 2 2 1 o ",
"{.2 2 2 2 2 2 2 2 2 2 2 2 2 2 2 2 2 2 2 2 2 2 >.J.F.I d y p w - = ; t 7 d N I +.w.Q.2 2 2 2 2 2 2 2 2 2 2 2 2 2 2 2 2 2 2 2 1 o ",
"{.2 2 2 2 2 2 2 2 2 2 2 2 2 2 2 2 2 2 2 2 2 2 -.U.t.c y y t ; = * - t t d N K ;.w.L.2 2 2 2 2 2 2 2 2 2 2 2 2 2 2 2 2 2 2 2 1 o ",
"{.2 2 2 2 2 2 2 2 2 2 2 2 2 2 2 2 2 2 2 2 2 X.9.F.1.M j p t - * * - t t d N K ;.w.n.[ 2 2 2 2 2 2 2 2 2 2 2 2 2 2 2 2 2 2 2 1 o ",
"{.2 2 2 2 2 2 2 2 2 2 2 2 2 2 2 2 2 2 2 2 2 2 i.F.L M f 0 7 : * * = 4 t h M K ;.w._ 2 2 2 2 2 2 2 2 2 2 2 2 2 2 2 2 2 2 2 2 1 o ",
"{.2 2 2 2 2 2 2 2 2 2 2 2 2 2 2 2 2 2 2 2 2 2 V.F.L l r q , % * * * ; i j x C >.a._ 2 2 2 2 2 2 2 2 2 2 2 2 2 2 2 2 2 2 2 2 1 o ",
"{.2 2 2 2 2 2 2 2 2 2 2 2 2 2 2 2 2 2 2 2 2 2 G.u.K v 3 7 ; * $ @ * ; t h x C 2.L._ 2 2 2 2 2 2 2 2 2 2 2 2 2 2 2 2 2 2 2 2 1 o ",
"{.2 2 2 2 2 2 2 2 2 2 2 2 2 2 2 2 2 2 2 2 2 2 x.E M j q 8 ; * + O * ; 5 y l C 2.L._ 2 2 2 2 2 2 2 2 2 2 2 2 2 2 2 2 2 2 2 2 1 o ",
"{.2 2 2 2 2 2 2 2 2 2 2 2 2 2 2 2 2 2 2 2 2 } n.I M j u w ; # . . # 4 t w l C 2.f.} 2 2 2 2 2 2 2 2 2 2 2 2 2 2 2 2 2 2 2 2 1 o ",
"{.2 2 2 2 2 2 2 2 2 2 2 2 2 2 2 2 2 2 2 2 2 h.u.J M j p w ; +   . @ 4 y t l K 2.z.' 2 2 2 2 2 2 2 2 2 2 2 2 2 2 2 2 2 2 2 2 1 o ",
"{.2 2 2 2 2 2 2 2 2 2 2 2 2 2 2 2 2 2 2 2 ` c.t.J M h t w ; # . X * 4 y p n K 2.z.2 2 2 2 2 2 2 2 2 2 2 2 2 2 2 2 2 2 2 2 2 1 o ",
"{.2 2 2 2 2 2 2 2 2 2 2 2 2 2 2 2 2 2 2 2 } f.6.J M h t w ; * + + * 4 y h N K w.v.2 2 2 2 2 2 2 2 2 2 2 2 2 2 2 2 2 2 2 2 2 1 o ",
"{.2 2 2 2 2 2 2 2 2 2 2 2 2 2 2 2 2 2 2 2 ` l.>.J N j t w ; * * * * ; w h N L d.v.2 2 2 2 2 2 2 2 2 2 2 2 2 2 2 2 2 2 2 2 2 1 o ",
"{.2 2 2 2 2 2 2 2 2 2 2 2 2 2 2 2 2 2 2 2 ] ^ >.J H l w w ; * * * * - 4 p N L d.v.2 2 2 2 2 2 2 2 2 2 2 2 2 2 2 2 2 2 2 2 2 1 o ",
"{.2 2 2 2 2 2 2 2 2 2 2 2 2 2 2 2 2 2 2 2 ` l.>.J H l p t w = * * * ; t d N L d.v.2 2 2 2 2 2 2 2 2 2 2 2 2 2 2 2 2 2 2 2 2 1 o ",
"{.2 2 2 2 2 2 2 2 2 2 2 2 2 2 2 2 2 2 2 2 ` m.@.J H M l i 5 - * * = ; u f M L d.v.2 2 2 2 2 2 2 2 2 2 2 2 2 2 2 2 2 2 2 2 2 1 o ",
"{.2 2 2 2 2 2 2 2 2 2 2 2 2 2 2 2 2 2 2 2 { 2 #.V H N l y ; - * * - < r f N L p._ 2 2 2 2 2 2 2 2 2 2 2 2 2 2 2 2 2 2 2 2 2 1 o ",
"{.2 2 2 2 2 2 2 2 2 2 2 2 2 2 2 2 2 2 2 2 ( r.+.J H N n i 4 ; = - ; 8 t h N <.M.{ 2 2 2 2 2 2 2 2 2 2 2 2 2 2 2 2 2 2 2 2 2 1 o ",
"{.2 2 2 2 2 2 2 2 2 2 2 2 2 2 2 2 2 2 2 2 n.a.=.T K K M i ; 4 ; ; > 7 t h N t.S.g.2 2 2 2 2 2 2 2 2 2 2 2 2 2 2 2 2 2 2 2 2 1 o ",
"{.2 2 2 2 2 2 2 2 2 2 2 2 2 2 2 2 2 2 2 2 W.H.-.;.C K M y , > 4 4 , 0 p j S F.D.%.2 2 2 2 2 2 2 2 2 2 2 2 2 2 2 2 2 2 2 2 2 1 o ",
"{.2 2 2 2 2 2 2 2 2 2 2 2 2 2 2 2 2 2 2 2 Q.H.%.O.E Y M d 7 & < 4 9 y d n ,.B.9.%.2 2 2 2 2 2 2 2 2 2 2 2 2 2 2 2 2 2 2 2 2 1 o ",
"{.2 2 2 2 2 2 2 2 2 2 2 2 2 2 2 2 2 2 2 2 2 /.&.;.1.Z.4.z a 0 8 4 w p g B C.8.| %.2 2 2 2 2 2 2 2 2 2 2 2 2 2 2 2 2 2 2 2 2 1 o ",
"{.2 2 2 2 2 2 2 2 2 2 2 2 2 2 2 2 2 2 2 2 2 ~.2 D 1.].C.C l s 6 4 y f g Z D.-.X.2 2 2 2 2 2 2 2 2 2 2 2 2 2 2 2 2 2 2 2 2 2 1 o ",
"{.2 2 2 2 2 2 2 2 2 2 2 2 2 2 2 2 2 2 2 2 2 /.2 O.Q f.Z.C j p y t t f l *.B.| +.2 2 2 2 2 2 2 2 2 2 2 2 2 2 2 2 2 2 2 2 2 2 1 o ",
"{.2 2 2 2 2 2 2 2 2 2 2 2 2 2 2 2 2 2 2 2 2 /.2 | ! _ S.:.g y h y w p c e.3.=.+.2 2 2 2 2 2 2 2 2 2 2 2 2 2 2 2 2 2 2 2 2 2 1 o ",
"{.2 2 2 2 2 2 2 2 2 2 2 2 2 2 2 2 2 2 2 2 2 /.2 | G ^ `.q.b h h y 6 s l A ;.+.2 2 2 2 2 2 2 2 2 2 2 2 2 2 2 2 2 2 2 2 2 2 2 1 o ",
"{.2 2 2 2 2 2 2 2 2 2 2 2 2 2 2 2 2 2 2 2 2 ~.2 | ;.~ j.4.N n h w y l M A =.+.2 2 2 2 2 2 2 2 2 2 2 2 2 2 2 2 2 2 2 2 2 2 2 1 o ",
"{.2 2 2 2 2 2 2 2 2 2 2 2 2 2 2 2 2 2 2 2 2 2 2 +.>.W h.Z.U M h t l N K R =.X.2 2 2 2 2 2 2 2 2 2 2 2 2 2 2 2 2 2 2 2 2 2 2 1 o ",
"{.2 2 2 2 2 2 2 2 2 2 2 2 2 2 2 2 2 2 2 2 2 2 2 2 +.F / M.E N j p N K P >.=.2 2 2 2 2 2 2 2 2 2 2 2 2 2 2 2 2 2 2 2 2 2 2 2 1 o ",
"{.2 2 2 2 2 2 2 2 2 2 2 2 2 2 2 2 2 2 2 2 2 2 2 2 X.>.! k.C.L N M C T ;.=.| 2 2 2 2 2 2 2 2 2 2 2 2 2 2 2 2 2 2 2 2 2 2 2 2 1 o ",
"{.2 2 2 2 2 2 2 2 2 2 2 2 2 2 2 2 2 2 2 2 2 2 2 2 2 +.+.y.[.5.K K C ;.=.=.X.2 2 2 2 2 2 2 2 2 2 2 2 2 2 2 2 2 2 2 2 2 2 2 2 1 o ",
"{.2 2 2 2 2 2 2 2 2 2 2 2 2 2 2 2 2 2 2 2 2 2 2 2 2 @.| t.].U.T V R >.=.+.2 2 2 2 2 2 2 2 2 2 2 2 2 2 2 2 2 2 2 2 2 2 2 2 2 1 o ",
"{.2 2 2 2 2 2 2 2 2 2 2 2 2 2 2 2 2 2 2 2 2 2 2 2 2 +.+.2 y.T.0.;.=.=.=.+.2 2 2 Y.2 2 2 2 2 2 2 2 2 2 2 2 2 2 2 2 2 2 2 2 2 1 o ",
"{.2 2 2 2 2 2 2 2 2 2 2 2 2 2 2 2 2 2 2 2 2 2 2 2 2 2 @.2 N.s.K.a.-.>.+.&.2 2 2 2 2 2 2 2 2 2 2 2 2 2 2 2 2 2 2 2 2 2 2 2 2 1 o ",
"{.2 2 2 2 2 2 2 2 2 2 2 2 2 2 2 2 2 2 2 2 2 2 2 2 2 2 2 X.@.e.L.K.w.$.2 P.Q.2 2 2 2 2 2 2 2 2 2 2 2 2 2 2 2 2 2 2 2 2 2 2 2 1 o ",
"{.2 2 2 2 2 2 2 2 2 2 2 2 2 2 2 2 2 2 2 2 2 2 2 2 2 2 2 X.+.g._ P.K.K.I.I.!.2 2 2 2 2 2 2 2 2 2 2 2 2 2 2 2 2 2 2 2 2 2 2 2 1 o ",
"{.2 2 2 2 2 2 2 2 2 2 2 2 2 2 2 2 2 2 2 2 2 2 2 2 2 2 2 2 2 2 ' b.P.L.c.) 2 2 2 2 2 2 2 2 2 2 2 2 2 2 2 2 2 2 2 2 2 2 2 2 2 1 o ",
"{.2 2 2 2 2 2 2 2 2 2 2 2 2 2 2 2 2 2 2 2 2 2 2 2 2 2 2 2 2 2 2 ` } ( [ 2 2 2 2 2 2 2 2 2 2 2 2 2 2 2 2 2 2 2 2 2 2 2 2 2 2 1 o ",
"{.2 2 2 2 2 2 2 2 2 2 2 2 2 2 2 2 2 2 2 2 2 2 2 2 2 2 2 2 2 2 2 2 2 2 2 2 2 2 2 2 2 2 2 2 2 2 2 2 2 2 2 2 2 2 2 2 2 2 2 2 2 1 o ",
"{.2 2 2 2 2 2 2 2 2 2 2 2 2 2 2 2 2 2 2 2 2 2 2 2 2 2 2 2 2 2 2 2 2 2 2 2 2 2 2 2 2 2 2 2 2 2 2 2 2 2 2 2 2 2 2 2 2 2 2 2 2 2 o ",
"{.2 1 1 1 1 1 1 1 1 1 1 1 1 1 1 1 1 1 1 1 1 1 1 1 1 1 1 1 1 1 1 1 1 1 1 1 1 1 1 1 1 1 1 1 1 1 1 1 1 1 1 1 1 1 1 1 1 1 1 1 1 1 o ",
"o o o o o o o o o o o o o o o o o o o o o o o o o o o o o o o o o o o o o o o o o o o o o o o o o o o o o o o o o o o o o o o o "
};
