/* XPM */
static char *exit16x16[] = {
/* columns rows colors chars-per-pixel */
"16 16 77 1 ",
"  c #3B3B3B",
". c #3F3F3F",
"X c #1B2369",
"o c #1B256C",
"O c #1A266F",
"+ c #1B2771",
"@ c #1E2A7B",
"# c #1C2B7C",
"$ c #1D2C7E",
"% c #21297D",
"& c #3E586B",
"* c #3D586C",
"= c #3C5D75",
"- c #3B6577",
"; c #3F6F7D",
": c #3E717E",
"> c #464646",
", c #454B4F",
"< c #444F51",
"1 c #454F51",
"2 c #424F59",
"3 c #545454",
"4 c #565656",
"5 c #4F566C",
"6 c #41586B",
"7 c #4B5B6F",
"8 c #436972",
"9 c #446A7B",
"0 c #626262",
"q c #737273",
"w c #252F8D",
"e c #25308C",
"r c #243190",
"t c #233699",
"y c #263AA5",
"u c #376588",
"i c #3A7587",
"p c #2A4BBB",
"a c #2656B5",
"s c #2F6FA5",
"d c #2F70AE",
"f c #3073A7",
"g c #4A6780",
"h c #426E9B",
"j c #516D95",
"k c #506FAC",
"l c #4677A0",
"z c #5373B7",
"x c #2C48C1",
"c c #2E4EC2",
"v c #2D4EC6",
"b c #2C4EC8",
"n c #2A59C9",
"m c #304FD4",
"M c #2C59D2",
"N c #3F7AC8",
"B c #2C60D5",
"V c #2C64D5",
"C c #306AD8",
"Z c #2A76D2",
"A c #2D70DF",
"S c #3170D7",
"D c #3157E0",
"F c #3490B9",
"G c #2982D7",
"H c #2690D6",
"J c #2793DD",
"K c #2FA6D7",
"L c #26A1DD",
"P c #2DB3D7",
"I c #2483E1",
"U c #238BE0",
"Y c #2B8DE4",
"T c #279FE3",
"R c #379DE3",
"E c #24B4EA",
"W c #499CDF",
/* pixels */
"q000000000000004",
"0>>>>>:Pi>>>>>>.",
"0>>>>>2UE&>>>>>.",
"0>>>>>dDYf>>>>>.",
"0>>>>,LvaG>>>>>.",
"0>>>>*TteB;>>>>.",
"0>>>>-Z%#Ml>>>>.",
"0>>>>gcXonj>>>>.",
"0>>>>zxo+V7>>>>.",
"0>>>>km$@C5>>>>.",
"0>>>>FAwrJ6>>>>.",
"0>>>>8RpyH>>>>>.",
"0>>>><NSbs>>>>>.",
"0>>>>>uKI=<>>>>.",
"0>>>>>>hW9>>>>>.",
"4.............. "
};
