/* XPM */
static char *exit32x32[] = {
/* columns rows colors chars-per-pixel */
"32 32 225 2 ",
"   c gray20",
".  c gray22",
"X  c #393939",
"o  c #161343",
"O  c #161547",
"+  c #161950",
"@  c #161C55",
"#  c #171D58",
"$  c #17205D",
"%  c #172263",
"&  c #172365",
"*  c #1C2269",
"=  c #182569",
"-  c #19266C",
";  c #19276F",
":  c #1A2872",
">  c #1C2C7B",
",  c #1D2D7F",
"<  c #1F2C7F",
"1  c #23297D",
"2  c #222B7F",
"3  c #3E576A",
"4  c #3F586B",
"5  c #3D586C",
"6  c #3D5B6E",
"7  c #3F6972",
"8  c #3F6973",
"9  c #464646",
"0  c #565656",
"q  c #5C5C5C",
"w  c #5A4A67",
"e  c #564D68",
"r  c #41586B",
"t  c #53516A",
"y  c #416972",
"u  c #436972",
"i  c gray49",
"p  c #1E2F84",
"a  c #2D2684",
"s  c #202F86",
"d  c #292882",
"f  c #262E8B",
"g  c #282C8B",
"h  c #213089",
"j  c #20328B",
"k  c #20328C",
"l  c #20328D",
"z  c #21338E",
"x  c #24308C",
"c  c #213391",
"v  c #213491",
"b  c #223493",
"n  c #253394",
"m  c #283092",
"M  c #2C3794",
"N  c #243699",
"B  c #24379A",
"V  c #24379C",
"C  c #24389D",
"Z  c #25389E",
"A  c #25399F",
"S  c #263AA4",
"D  c #273BA7",
"F  c #273CA9",
"G  c #283BA9",
"H  c #2A3AA8",
"J  c #283CA9",
"K  c #2A3CAD",
"L  c #293EAF",
"P  c #3132A0",
"I  c #2F3FB8",
"U  c #356990",
"Y  c #346991",
"T  c #366A91",
"R  c #346993",
"E  c #3F6991",
"W  c #386D91",
"Q  c #2B41B7",
"!  c #2B41B8",
"~  c #2B42B8",
"^  c #2C44BE",
"/  c #2D44BF",
"(  c #2361B0",
")  c #2B7BB6",
"_  c #2D7BB6",
"`  c #2A7BB8",
"'  c #2A7CB9",
"]  c #6C4F89",
"[  c #66558B",
"{  c #66578C",
"}  c #69528A",
"|  c #625B8E",
" . c #4F6F97",
".. c #477C96",
"X. c #477E96",
"o. c #4F7098",
"O. c #2D44C0",
"+. c #2D44C1",
"@. c #2D45C3",
"#. c #2E45C3",
"$. c #2E45C4",
"%. c #2E46C4",
"&. c #2E46C5",
"*. c #2E46C6",
"=. c #2F47C8",
"-. c #2F4ACC",
";. c #304CCF",
":. c #2E51CA",
">. c #2F50CF",
",. c #2C5CCF",
"<. c #314BD2",
"1. c #314CD5",
"2. c #314ED5",
"3. c #324CD6",
"4. c #324FDA",
"5. c #2E5AD2",
"6. c #2F58DA",
"7. c #3055DA",
"8. c #3350DE",
"9. c #3156DF",
"0. c #277FCE",
"q. c #2C6BD5",
"w. c #2E61DF",
"e. c #2C6CDE",
"r. c #3160DF",
"t. c #277DDF",
"y. c #267FDE",
"u. c #2C7DDC",
"i. c #3351E0",
"p. c #3352E0",
"a. c #3157E0",
"s. c #3257E0",
"d. c #2D67E0",
"f. c #2C67E1",
"g. c #2B6BE1",
"h. c #2C6BE1",
"j. c #2A6DE0",
"k. c #2E6FE1",
"l. c #3163E3",
"z. c #2875E0",
"x. c #2A74E2",
"c. c #2E74E0",
"v. c #257DE0",
"b. c #2B79E4",
"n. c #4678DA",
"m. c #5F7DD9",
"M. c #3F819D",
"N. c #338898",
"B. c #38899F",
"V. c #3E8C9F",
"C. c #398CA0",
"Z. c #2B81B9",
"A. c #3684BB",
"S. c #408C9F",
"D. c #309CC6",
"F. c #2381DF",
"G. c #268CD9",
"H. c #238ADD",
"J. c #218ADF",
"K. c #238CDC",
"L. c #238CDD",
"P. c #228DDD",
"I. c #238DDD",
"U. c #208DDF",
"Y. c #248DDC",
"T. c #3280DD",
"R. c #2497DF",
"E. c #2DA2C8",
"W. c #31A5C9",
"Q. c #34AECD",
"!. c #2883E3",
"~. c #2C81E0",
"^. c #2F81E0",
"/. c #2C86E1",
"(. c #2D85E3",
"). c #218AE0",
"_. c #258BE2",
"`. c #208DE0",
"'. c #278DE3",
"]. c #2B8BE7",
"[. c #2B8BE8",
"{. c #2D8CED",
"}. c #2192E1",
"|. c #2296E5",
" X c #229AE5",
".X c #2A9BE6",
"XX c #299BE9",
"oX c #3790E7",
"OX c #3D91E0",
"+X c #22A2E6",
"@X c #24ACE0",
"#X c #20AFE4",
"$X c #25A2E8",
"%X c #24A7EA",
"&X c #27AFE8",
"*X c #3AA9E3",
"=X c #36A9EC",
"-X c #2FB2EF",
";X c #25BCEC",
":X c #30B1E9",
">X c #4281DE",
",X c #5794DF",
"<X c #6A84DD",
"1X c #6A85DE",
"2X c #50A8DF",
"3X c #4B97E5",
"4X c #449EE7",
"5X c #628EE1",
"6X c #4FA5EB",
"7X c #22C4EC",
"8X c #22C4ED",
"9X c #25CEEE",
"0X c #29CAEE",
"qX c #24D0EA",
"wX c #22D7ED",
"eX c #22DAED",
"rX c #24C5F2",
"tX c #27C2F6",
"yX c #25C9F7",
"uX c #31CCF8",
"iX c #22D9F0",
"pX c #23DAF6",
"aX c #27D2FC",
"sX c #29D0FA",
"dX c #8D8A8D",
/* pixels */
"dXi i i i i i i i i i i i i i i i i i i i i i i i i i i i i i q ",
"i 9 9 9 9 9 9 9 9 9 9 9 9 9 9 9 9 9 9 9 9 9 9 9 9 9 9 9 9 9 9 . ",
"i 9 9 9 9 9 9 9 9 9 9 9 9 Q.aXsXy 9 9 9 9 9 9 9 9 9 9 9 9 9 9 . ",
"i 9 9 9 9 9 9 9 9 9 9 9 9 C.E.B.yX6 9 9 9 9 9 9 9 9 9 9 9 9 9 . ",
"i 9 9 9 9 9 9 9 9 9 9 9 9 5 H. XpXR.9 9 9 9 9 9 9 9 9 9 9 9 9 . ",
"i 9 9 9 9 9 9 9 9 9 9 9 9 5 H.v.XX7XK.9 9 9 9 9 9 9 9 9 9 9 9 . ",
"i 9 9 9 9 9 9 9 9 9 9 9 5 Y.d.i.l.wX}.9 9 9 9 9 9 9 9 9 9 9 9 . ",
"i 9 9 9 9 9 9 9 9 9 9 9 T x.i.4.3.&X_.Y 9 9 9 9 9 9 9 9 9 9 9 . ",
"i 9 9 9 9 9 9 9 9 9 9 9 ' [.d.O.Q 0.$X) 9 9 9 9 9 9 9 9 9 9 9 . ",
"i 9 9 9 9 9 9 9 9 9 9 r +XeX5.G C ( k.t.9 9 9 9 9 9 9 9 9 9 9 . ",
"i 9 9 9 9 9 9 9 9 9 9 T 8X~.G N n M >.e.V.9 9 9 9 9 9 9 9 9 9 . ",
"i 9 9 9 9 9 9 9 9 9 9 T eX5.V p > g *.t.W.9 9 9 9 9 9 9 9 9 9 . ",
"i 9 9 9 9 9 9 9 9 9 9 Z.;X^ N ; - b *.g.-Xe 9 9 9 9 9 9 9 9 9 . ",
"i 9 9 9 9 9 9 9 9 9 9 N..XI a * & j @.e.3X9 9 9 9 9 9 9 9 9 9 . ",
"i 9 9 9 9 9 9 9 9 9 9 X.c.P s # # p Q x.6X9 9 9 9 9 9 9 9 9 9 . ",
"i 9 9 9 9 9 9 9 9 9 9 ,X6.K p o O k F x.<X9 9 9 9 9 9 9 9 9 9 . ",
"i 9 9 9 9 9 9 9 9 9 [ =X7.S p + @ k @.b.o.9 9 9 9 9 9 9 9 9 9 . ",
"i 9 9 9 9 9 9 9 9 9 ] >X9.D p % & , *.{.o.9 9 9 9 9 9 9 9 9 9 . ",
"i 9 9 9 9 9 9 9 9 9 } OXs./ c = & h @.{.o.9 9 9 9 9 9 9 9 9 9 . ",
"i 9 9 9 9 9 9 9 9 9 [ A.s.<.l ; : f *.oX| 9 9 9 9 9 9 9 9 9 9 . ",
"i 9 9 9 9 9 9 9 9 9 M.%Xh.4.f p 1 m :.qXE 9 9 9 9 9 9 9 9 9 9 . ",
"i 9 9 9 9 9 9 9 9 9 8 :X~.G.H d p F u.#XW 9 9 9 9 9 9 9 9 9 9 . ",
"i 9 9 9 9 9 9 9 9 9 9 S.T.9X-.C b ~ @XK.9 9 9 9 9 9 9 9 9 9 9 . ",
"i 9 9 9 9 9 9 9 9 9 9 S.T.6Xq.K b ~ '.` 9 9 9 9 9 9 9 9 9 9 9 . ",
"i 9 9 9 9 9 9 9 9 9 9 y H.m.(.@.S 1.F.T 9 9 9 9 9 9 9 9 9 9 9 . ",
"i 9 9 9 9 9 9 9 9 9 9 9 T n.*X1.-.g.`.9 9 9 9 9 9 9 9 9 9 9 9 . ",
"i 9 9 9 9 9 9 9 9 9 9 9 9 K.9X].w.J.) 9 9 9 9 9 9 9 9 9 9 9 9 . ",
"i 9 9 9 9 9 9 9 9 9 9 9 9 ) X.rX|.U.W 9 8 9 9 9 9 9 9 9 9 9 9 . ",
"i 9 9 9 9 9 9 9 9 9 9 9 9 9 G.4XtXD.uX9 9 9 9 9 9 9 9 9 9 9 9 . ",
"i 9 9 9 9 9 9 9 9 9 9 9 9 9 9 w <X5Xt 9 9 9 9 9 9 9 9 9 9 9 9 . ",
"i 9 9 9 9 9 9 9 9 9 9 9 9 9 9 9 9 9 9 9 9 9 9 9 9 9 9 9 9 9 9 . ",
"0 . . . . . . . . . . . . . . . . . . . . . . . . . . . . . .   "
};
