/* XPM */
static char *floor32x32[] = {
/* columns rows colors chars-per-pixel */
"32 32 8 1 ",
"  c gray20",
". c gray22",
"X c #393939",
"o c #464646",
"O c #565656",
"+ c #5C5C5C",
"@ c gray49",
"# c #8D8A8D",
/* pixels */
"#@@@@@@@@@@@@@@@@@@@@@@@@@@@@@@+",
"@oooooooooooooooooooooooooooooo.",
"@oooooooooooooooooooooooooooooo.",
"@oooooooooooooooooooooooooooooo.",
"@oooooooooooooooooooooooooooooo.",
"@oooooooooooooooooooooooooooooo.",
"@oooooooooooooooooooooooooooooo.",
"@oooooooooooooooooooooooooooooo.",
"@oooooooooooooooooooooooooooooo.",
"@oooooooooooooooooooooooooooooo.",
"@oooooooooooooooooooooooooooooo.",
"@oooooooooooooooooooooooooooooo.",
"@oooooooooooooooooooooooooooooo.",
"@oooooooooooooooooooooooooooooo.",
"@oooooooooooooooooooooooooooooo.",
"@oooooooooooooooooooooooooooooo.",
"@oooooooooooooooooooooooooooooo.",
"@oooooooooooooooooooooooooooooo.",
"@oooooooooooooooooooooooooooooo.",
"@oooooooooooooooooooooooooooooo.",
"@oooooooooooooooooooooooooooooo.",
"@oooooooooooooooooooooooooooooo.",
"@oooooooooooooooooooooooooooooo.",
"@oooooooooooooooooooooooooooooo.",
"@oooooooooooooooooooooooooooooo.",
"@oooooooooooooooooooooooooooooo.",
"@oooooooooooooooooooooooooooooo.",
"@oooooooooooooooooooooooooooooo.",
"@oooooooooooooooooooooooooooooo.",
"@oooooooooooooooooooooooooooooo.",
"@oooooooooooooooooooooooooooooo.",
"O.............................. "
};
