/* XPM */
static char *fb36abe469fb4964af41e4859595c580n8udwpMhn0snspFw[] = {
/* columns rows colors chars-per-pixel */
"64 64 201 2 ",
"   c #020205",
".  c #090607",
"X  c #02050A",
"o  c #06080B",
"O  c #0C0C0C",
"+  c #100E0D",
"@  c #11100F",
"#  c #000711",
"$  c #020B13",
"%  c #0E0F11",
"&  c #000F19",
"*  c #011017",
"=  c #0D1014",
"-  c #01111C",
";  c #131313",
":  c #1C1413",
">  c #15161A",
",  c #1A1819",
"<  c gray11",
"1  c #231D1B",
"2  c #281F1B",
"3  c #25201E",
"4  c #2C211E",
"5  c #35241F",
"6  c #011320",
"7  c #1B1D23",
"8  c #151E28",
"9  c #231F20",
"0  c #1E2125",
"q  c #1C232B",
"w  c gray13",
"e  c #292527",
"r  c #2A2A2C",
"t  c gray18",
"y  c #332622",
"u  c #3B2A25",
"i  c #342B29",
"p  c #272B30",
"a  c #2B2D32",
"s  c #363132",
"d  c #323234",
"f  c #393535",
"g  c #37383D",
"h  c #3A3A3D",
"j  c #442D28",
"k  c #45332D",
"l  c #4A342D",
"z  c #443631",
"x  c #4A3A35",
"c  c #443A3A",
"v  c #533C35",
"b  c #4C413C",
"n  c #5A453D",
"m  c #6E4C3F",
"M  c #353A44",
"N  c #3D3E42",
"B  c #3F4044",
"V  c gray26",
"C  c #424345",
"Z  c #464346",
"A  c #464646",
"S  c #4A4B4E",
"D  c #5B4945",
"F  c #4B4D52",
"G  c #4E4E58",
"H  c #4F5157",
"J  c #515256",
"K  c #53555A",
"L  c #57595F",
"P  c #5A5A5E",
"I  c #644D46",
"U  c #734F42",
"Y  c #6E5248",
"T  c #765549",
"R  c #775D54",
"E  c #7B6157",
"W  c #5B5D63",
"Q  c #5D616A",
"!  c #64666D",
"~  c #66696F",
"^  c #776C6A",
"/  c #666A71",
"(  c #6B6D74",
")  c #68707A",
"_  c #6E7179",
"`  c #71747B",
"'  c #76767C",
"]  c #896456",
"[  c #936D5F",
"{  c #876C62",
"}  c #8A776E",
"|  c #86797E",
" . c #967B73",
".. c #A87A69",
"X. c #B37B67",
"o. c #A37E72",
"O. c #BC836D",
"+. c #A48477",
"@. c #B98977",
"#. c #BE907E",
"$. c #C6886F",
"%. c #C48A73",
"&. c #CB8D75",
"*. c #CA937D",
"=. c #6A7889",
"-. c #767A82",
";. c #777986",
":. c #7A7D85",
">. c #687F92",
",. c #877D83",
"<. c #7E828A",
"1. c #69859A",
"2. c #778595",
"3. c #7A8493",
"4. c #82848C",
"5. c #88868B",
"6. c #96888B",
"7. c #848790",
"8. c #868A94",
"9. c #8B8C94",
"0. c #878F9F",
"q. c #8C8E9A",
"w. c #918E9A",
"e. c #8E919A",
"r. c #92949D",
"t. c #9B9B9F",
"y. c #AC8E83",
"u. c #B38E81",
"i. c #A9948B",
"p. c #B99383",
"a. c #B7A092",
"s. c #8894A3",
"d. c #9496A1",
"f. c #9699A2",
"g. c #9B9DA5",
"h. c #9C9DA8",
"j. c #9FA0AA",
"k. c #8AAABA",
"l. c #A7A5AA",
"z. c #A2A3AC",
"x. c #A6A6B1",
"c. c #A7A8B2",
"v. c #ABACB5",
"b. c #ADAFB9",
"n. c #AFB0B9",
"m. c #B2B1B6",
"M. c #B4B4B4",
"N. c #B4B5BD",
"B. c #C79885",
"V. c #D59B84",
"C. c #D99E87",
"Z. c #D5A28E",
"A. c #DAA28C",
"S. c #CEA898",
"D. c #DCAA95",
"F. c #E2AC96",
"G. c #E4B09B",
"H. c #D7BAAB",
"J. c #D3BEB0",
"K. c #EAB7A2",
"L. c #E3B9A6",
"P. c #E5BAA5",
"I. c #ECB9A4",
"U. c #EDBDA8",
"Y. c #F1BCA7",
"T. c #F0BDA9",
"R. c #EDC2AE",
"E. c #F2C0AB",
"W. c #E8C6B5",
"Q. c #EEC8B6",
"!. c #F4CEBA",
"~. c #B7B7C1",
"^. c #BABBC4",
"/. c #BCBCC4",
"(. c #94CCDF",
"). c #C4C4CC",
"_. c #C8C8CE",
"`. c #C7C7D1",
"'. c #C7C8D0",
"]. c #CACAD3",
"[. c #D4CDD4",
"{. c #D0D0D7",
"}. c #D4D3DB",
"|. c #D8D7DD",
" X c #D9D8DF",
".X c #EFD5C4",
"XX c #F7D7C4",
"oX c #FBDDCB",
"OX c #FDE1CE",
"+X c #FEE4D1",
"@X c #C1DCE3",
"#X c #DCDCE2",
"$X c #E0DFE5",
"%X c #E1E1E6",
"&X c #E5E5EA",
"*X c #E8E7ED",
"=X c #E9E8EE",
"-X c #F5ECE5",
";X c #EBEAF0",
":X c #F4F4F5",
">X c #F9F9F8",
/* pixels */
"A [.M.M.M.M.M.M.M.M.M.M.M.M.M.M.M.M.M.M.M.M.M.M.M.M.M.M.M.M.M.M.M.M.M.M.M.M.M.M.M.M.M.M.M.M.M.M.M.M.M.M.M.M.M.M.M.M.M.M.M.M.M.A ",
"[.A A A A A A A A A A A A A A A A A A A A A A A A A A A A A A A A A A A A A A A A A A A A A A A A A A A A A A A A A A A A A A t ",
"M.A A A A A A A A A A A A A A A A A A A A A A A A A 2.8.e.g.].].b.r.e.8.2.A A A A A A A A A A A A A A A A A A A A A A A A A V t ",
"M.A A A A A A A A A A A A A A A A A A A A A A A 0.q.v.{.&X:X>X>X>X:X=X}./.h.d.A A A A A A A A A A A A A A A A A A A A A A A V t ",
"M.A A A A A A A A A A A A A A A A A A A A A s.h.]. X&X>X>X>X>X>X>X>X>X>X>X>X&Xj.s.A A A A A A A A A A A A A A A A A A A A A V t ",
"M.A A A A A A A A A A A A A A A A A A A A A s.z.{.>X=X#X:X>X>X>X>X>X>X>X>X>X=X%X'.8.3.A A A A A A A A A A A A A A A A A A A V t ",
"M.A A A A A A A A A A A A A A A A A A A A =.3.q.{.#X#X&X:X>X>X>X&X X>X>X>X>X=X).v.7.2.A A A A A A A A A A A A A A A A A A A V t ",
"M.A A A A A A A A A A A A A A A A A A A 2.8.x.^.{.). X>X#X X=X{.~.z.#X:X&X{.=X).v.q.3.A A A A A A A A A A A A A A A A A A A V t ",
"M.A A A A A A A A A A A A A A A A A A A >.;.c.].).x.~.].].`./.h.9.,.x.].~.h./.`.b.:.>.A A A A A A A A A A A A A A A A A A A V t ",
"M.A A A A A A A A A A A A A A A A A A A >.;.c.].).x.~.].].`./.h.9.,.x.].~.h./.`.b.:.>.A A A A A A A A A A A A A A A A A A A V t ",
"M.A A A A A A A A A A A A A A A A A A A A =.x./.z.~.v.f.N.^.9.-. .o.:.h.q.-.x.h.q.-.A A A A A A A A A A A A A A A A A A A A V t ",
"M.A A A A A A A A A A A A A A A A A A A A A s.q.! q.9.| 9.w.,.8.2.>.6.9.2.1.s.;.=.A A A A A A A A A A A A A A A A A A A A A V t ",
"M.A A A A A A A A A A A A A A A A A A A A A A ) > 6.u.%.y.i.H.-X@X(.W.l.k.k.) A A A A A A A A A A A A A A A A A A A A A A A V t ",
"M.A A A A A A A A A A A A A A A A A A A A A A A M { R U @.G.XXL.!.+XoXW.H.A.v A A A A A A A A A A A A A A A A A A A A A A A V t ",
"M.A A A A A A A A A A A A A A A A A A A A A A A A C e . j Y Q.L.R.!.D.A.@.R h A A A A A A A A A A A A A A A A A A A A A A A V t ",
"M.A A A A A A A A A A A A A A A A A A A A A A A A a < . v T { R.Q.Q.p.I c A A A A A A A A A A A A A A A A A A A A A A A A A V t ",
"M.A A A A A A A A A A A A A A A A A A A A X   X O O O @ 4 k T n D D z .   . . A A A A A A A A A A A A A A A A A A A A A A A V t ",
"M.A A A A A A A A A A A A A A A A A A A O ; ; ; < < < < ; ; v o.+.o.m + o O + o     A A A A A A A A A A A A A A A A A A A A V t ",
"M.A A A A A A A A A A A A A A A A o o o > < < < w w w w 3 < > 3 3 3 : @ ; > < > ; ; O o o A A A A A A A A A A A A A A A A A V t ",
"M.A A A A A A A A A A A A A A A O > ; > w w w w w w w w w w < ; ; ; ; ; > w w w 3 w < > ;   6 A A A A A A A A A A A A A A A V t ",
"M.A A A A A A A A A A A A A A o ; w w w < < < < < w w w w w w w w w < > < w w w w w w < ,   - A A A A A A A A A A A A A A A V t ",
"M.A A A A A A A A A A A A A X   > < < < > ; O o O < < w w w w w w w w w < < < w w w < O o o $ A A A A A A A A A A A A A A A V t ",
"M.A A A A A A A A A A A A A X   ; ; ; ; < < O   O ; ; > , < w w w w < < > ; > < w w <     ; O   A A A A A A A A A A A A A A V t ",
"M.A A A A A A A A A A A A A X   ; ; < < w w O   O ; ; ; ; ; > > > > > ; ; ; ; > > > ;     @ o   A A A A A A A A A A A A A A V t ",
"M.A A A A A A A A A A A A A X o w e 1 < < > o   O ; > < > ; ; ; ; ; < < < < < < < < >     O o   A A A A A A A A A A A A A A V t ",
"M.A A A A A A A A A A A A A X y #.X.n i w O o     O > < < < < < < < < > ; ; ; < 1 1 ; o ; e 1   A A A A A A A A A A A A A A V t ",
"M.A A A A A A A A A A A A A X y #.X.n i w O o     O > < < < < < < < < > ; ; ; < 1 1 ; o ; e 1   A A A A A A A A A A A A A A V t ",
"M.A A A A A A A A A A A A A X u E.R.W.W. .  A A A X o ; < < < ; ; ; ; > > > > ; ; O 2 s n B.]   A A A A A A A A A A A A A A V t ",
"M.A A A A A A A A A A A A A c Y Q.+X+X+Xy.  A A A X o O @ ; < ; ; ; ; < w w < > ;   Y Z.Z.C.]   A A A A A A A A A A A A A A V t ",
"M.A A A A A A A A A A A X : S.P.D.XXOX.XR $ A A A A A   O ; ; ; > > < w < < < 3 <   Y &.&.I.p.I A A A A A A A A A A A A A A V t ",
"M.A A A A A A A A A A A   > J.XXA.A.G.B.X A A A A A A   O ; ; ; < w w w < ; < w <   E *.&.I.U.T.  A A A A A A A A A A A A A V t ",
"M.A A A A A A A A A A A   ; J.oXU.L.R k A A A A A X a H ' 4.> < < < < < < < < < g 5.^ #.F.I.G.V.  A A A A A A A A A A A A A V t ",
"M.A A A A A A A A A A A   ; J.OX!.R.z   A A A A A   < N P ( 5.4.( W t.t.g.z.' W W P r u.E.U.F.$.  A A A A A A A A A A A A A V t ",
"M.A A A A A A A A A A A   ; J.+XU.*.u X A A A A A % h ` 9.z.N.J S S h C C N C N S ( g @.Y.U.K.G.  A A A A A A A A A A A A A V t ",
"M.A A A A A A A A A A A   ; J.+X!.G.k X A A A A   ( e.N.}.&X$X_.l.5., w < < S r.z.~.! ] @.K.T.T.  A A A A A A A A A A A A A V t ",
"M.A A A A A A A A A A A   ; H.oXXXR.z   A A A A 0 q.v.'.#X=X;X:X5.e a z._ ; w <.g./.g.r y Z.G.U.2 A A A A A A A A A A A A A V t ",
"M.A A A A A A A A A A A A @ #.P.OXoX{ c A A # O / ).|.*X=X=X}.l.P < r z.( O < K -.~.z.w : X.V.U.@.2   A A A A A A A A A A A V t ",
"M.A A A A A A A A A A A A ; p.P.+XOXK.B.D A X O :.&X=X=X=X=Xc.< < < ~ K F C e > Z ~.z.w : X.V.U.G.e   A A A A A A A A A A A V t ",
"M.A A A A A A A A A A A   : J.OXXXoX{ m [ . r J z.*X=X=X=X=Xv.w , < t.O g 8.h < S ~.z.w : X.V.T.B.2   A A A A A A A A A A A V t ",
"M.A A A A A A A A A A A   ; S.R.Q.XXy.] 5   J e.'.*X=X=X=X=Xv.e K :.( o h 8.r.d S ~.z.w : X.%.V.l 7 A A A A A A A A A A A A V t ",
"M.A A A A A A A A A A A A A c x b Z b z w Q e.N.#X=X=X=X=X=X|.m.N.~./ ; F v.|.4.4./.z.a + 5 u u A A A A A A A A A A A A A A V t ",
"M.A A A A A A A A A A A A A A A A A A A d q./.%X*X=X=X=X=X=X*X*X~.9.r ~ 9./.).}.#X$X].<.W O $ A A A A A A A A A A A A A A A V t ",
"M.A A A A A A A A A A A A A A A A A A A d q./.%X*X=X=X=X=X=X*X*X~.9.r ~ 9./.).}.#X$X].<.W O $ A A A A A A A A A A A A A A A V t ",
"M.A A A A A A A A A A A A A A A A A A A J N.}.;X=X=X=X=X=X=X#X).z.<.< <.h./.~.%X=X=X{.d.` O - A A A A A A A A A A A A A A A V t ",
"M.A A A A A A A A A A A A A A A A A X ; r.~.|.;X=X=X=X=X=X=X{./.z.4.> :.g./.).&X=X=X{.d.` O - A A A A A A A A A A A A A A A V t ",
"M.A A A A A A A A A A A A A A A A A a B z.~.].#X*X=X%X X#X|.N.v.:.K C <.g./. X=X=X=X#Xg.` O - A A A A A A A A A A A A A A A V t ",
"M.A A A A A A A A A A A A A A A A o ! e././././.].}.]./././.v.9.B   8.8.g./. X=X=X=X#Xg._ O - A A A A A A A A A A A A A A A V t ",
"M.A A A A A A A A A A A A A A A A o ' v./././././.^./././.~.d.8.N   e.z.v./. X=X=X=X{.v.r.K M X A A A A A A A A A A A A A A V t ",
"M.A A A A A A A A A A A A A A A g W z./././././././././.~.N.( d >   r.~././.).&X%X].)./.N.e.W   A A A A A A A A A A A A A A V t ",
"M.A A A A A A A A A A A A A A A S e.b./././././././././.z.e.W     o r.~././.~.).)./././.N.e.L   A A A A A A A A A A A A A A V t ",
"M.A A A A A A A A A A A A A # 0 e.N.~.~././././././.~.N.f.-.8 A $ o r.~././././././././.N.e.L   A A A A A A A A A A A A A A V t ",
"M.A A A A A A A A A A A A A X w z./.).).).^.~.~.~.).N.d.q.-.# A * o r.~././././././././.N.e.L   A A A A A A A A A A A A A A V t ",
"M.A A A A A A A A A A A A A X w j./.#X*X#X].].].].*X{.~.f.-.$ A * o r.~././././././././.N.e.L   A A A A A A A A A A A A A A V t ",
"M.A A A A A A A A A A A A A   w z./.#X;X=X=X=X*X#X#X).x._ G A A * o e.z.n./././././././.N.e.W   A A A A A A A A A A A A A A V t ",
"M.A A A A A A A A A A A A A X w z./.].{.{.{.{.{.).z.f.7.a   A A & o 8.8.g././././.~.).n.r.H M X A A A A A A A A A A A A A A V t ",
"M.A A A A A A A A A A A A A A q / h.g.z.~.~.~.~./.8.7.4.a   A A & o 8.7.x.|.)./.).|.#Xz._ O & A A A A A A A A A A A A A A A V t ",
"M.A A A A A A A A A A A A A A A B 4.4.8.d.d.d.d.d.4.W d A A A A A A C :.e.c.).|.#X*X).9.( % & A A A A A A A A A A A A A A A V t ",
"M.A A A A A A A A A A A A A A A q p ! :.;.;.;.-.-.p q A A A A A A A A 0 Z -.8.e.e.r.4.N q A A A A A A A A A A A A A A A A A V t ",
"M.A A A A A A A A A A A A A A A A A > < i i 9 > 7 A A A A A A A A A A   ; i i h d > < A A A A A A A A A A A A A A A A A A A V t ",
"M.A A A A A A A A A A A A A A A A A > < i i 9 > 7 A A A A A A A A A A   ; i i h d > < A A A A A A A A A A A A A A A A A A A V t ",
"M.A A A A A A A A A A A A A A A A A 4 j %.*.v X A A A A A A A A A A A   l X.O.a.} o # A A A A A A A A A A A A A A A A A A A V t ",
"M.A A A A A A A A A A A A A A A A   n ] +.i.b X A A A A A A A A A A A   u ] ..f w > ; A A A A A A A A A A A A A A A A A A A A t ",
"M.A V V V V V V V V V V V V V V o o O + > > ; = - V V V V V V V V V V     O O o O ; ; o     - V V V V V V V V V V V V V V V V t ",
"t t t t t t t t t t t t t t t t   o o o ; ; ; ;   t t t t t t t t t t t X X X X X X X X X X t t t t t t t t t t t t t t t t t t "
};
