/* XPM */
static char *Gojo16x16[] = {
/* columns rows colors chars-per-pixel */
"16 16 127 2 ",
"   c #0F1114",
".  c #131315",
"X  c #141415",
"o  c #151517",
"O  c #171717",
"+  c #191717",
"@  c #171718",
"#  c #181819",
"$  c #191919",
"%  c #19191A",
"&  c #1A1A1B",
"*  c #1B1B1B",
"=  c #1A1B1D",
"-  c #1C1B1C",
";  c #1D1C1C",
":  c #1C1C1D",
">  c #1D1D1E",
",  c #28211F",
"<  c #202122",
"1  c #262120",
"2  c #252526",
"3  c #29292B",
"4  c #2E2C2D",
"5  c #2C2D2F",
"6  c #2E2D2F",
"7  c #2D2E2F",
"8  c #352B28",
"9  c #392E2A",
"0  c #2D2F31",
"q  c #303132",
"w  c #333333",
"e  c #373334",
"r  c #373737",
"t  c #363839",
"y  c #38393A",
"u  c #39393B",
"i  c #3B3B3B",
"p  c #3E3E3E",
"a  c #3F3F3F",
"s  c #413532",
"d  c #443430",
"f  c #4A3F3B",
"g  c #363B40",
"h  c #3E3E40",
"j  c #3E3F41",
"k  c #434040",
"l  c #474443",
"z  c #414246",
"x  c #464544",
"c  c #464646",
"v  c #444548",
"b  c #454649",
"n  c #45454A",
"m  c #46484C",
"M  c #484949",
"N  c #48494D",
"B  c #524543",
"V  c #4B5058",
"C  c #545454",
"Z  c #565656",
"A  c #51545A",
"S  c #54555A",
"D  c #57555B",
"F  c #57585D",
"G  c #55585E",
"H  c #604D47",
"J  c #6D5F59",
"K  c #7B685F",
"L  c #5F5F63",
"P  c #615F63",
"I  c #626262",
"U  c #6D6664",
"Y  c #606268",
"T  c #646569",
"R  c #64676E",
"E  c #67696F",
"W  c #7A6D65",
"Q  c #676C73",
"!  c #737273",
"~  c #7A7375",
"^  c #74747A",
"/  c #76777A",
"(  c #74767C",
")  c #83685E",
"_  c #866D62",
"`  c #A27766",
"'  c #757880",
"]  c #787C85",
"[  c #808286",
"{  c #858A94",
"}  c #959299",
"|  c #94949B",
" . c #B69587",
".. c #9E9FA2",
"X. c #9C9DA5",
"o. c #9DA1AD",
"O. c #A7A7AA",
"+. c #A7A7B0",
"@. c #B0B1B7",
"#. c #B2B2B7",
"$. c #B0B0B8",
"%. c #B2B3BB",
"&. c #B5B5BD",
"*. c #C39481",
"=. c #C7A798",
"-. c #D9A894",
";. c #D9B4A2",
":. c #D5BBAF",
">. c #B8B8C0",
",. c #B8B9C1",
"<. c #BABAC2",
"1. c #BBBBC3",
"2. c #BCBCC4",
"3. c #BEBEC6",
"4. c #BFBFC7",
"5. c #C0C0C8",
"6. c #C6C6CD",
"7. c #D0CFD6",
"8. c #D0CFD7",
"9. c #D1D1D8",
"0. c #D4D4DB",
"q. c #DEDEE3",
"w. c #E1E0E6",
"e. c #E3E3E7",
"r. c #E8E7ED",
"t. c #EAEAEC",
"y. c #F1F1F2",
/* pixels */
"! I I I I I [ O.o./ I I I I I Z ",
"I c c c c ] q.y.t.e./ c c c c a ",
"I c c c c { +.+.} o.E c c c c a ",
"I c c c c M B  .:.U c c c c c a ",
"I c c c 4 # % 8 9 X 2 r c c c a ",
"I c c 3 % X # : : % % X c c c a ",
"I c c 4 ) : . % % % ; , c c c a ",
"I c c J ;.k 4 < ; : B *.a c c a ",
"I c c W _ c F @.L S ~ -.r c c a ",
"I c c K =.e 7.@.v v ( ` f c c a ",
"I c c c l | r.w.( @.&.4 c c c a ",
"I c c c v 4.0.<.Y 6.9.g c c c a ",
"I c c i X.<.<.R G 3.5.E c c c a ",
"I c c w <.9.%.z V <.3.A c c c a ",
"I c c c M D m v j P T j c c c a ",
"C a a a 1 r t f w d = 0 a a a i "
};
