/* XPM */
static char *Gojo32x32[] = {
/* columns rows colors chars-per-pixel */
"32 32 139 2 ",
"   c #050608",
".  c #06090C",
"X  c #0B0B0D",
"o  c #030B11",
"O  c #0E0E10",
"+  c #141314",
"@  c #1B1616",
"#  c #151618",
"$  c #17181C",
"%  c #1B1B1B",
"&  c #231D1C",
"*  c #21201F",
"=  c #2C211F",
"-  c #1D2124",
";  c #1F252B",
":  c #222224",
">  c #2A2424",
",  c #24272A",
"<  c #242A2F",
"1  c #2A2B2C",
"2  c #342622",
"3  c #332A27",
"4  c #322B2A",
"5  c #242C31",
"6  c #2C2E32",
"7  c #343435",
"8  c #36373A",
"9  c #35393C",
"0  c #383838",
"q  c #4A3E3C",
"w  c #553E36",
"e  c #47403F",
"r  c #56443E",
"t  c #5F443C",
"y  c #68483D",
"u  c #3D3F41",
"i  c #3F4044",
"p  c #464646",
"a  c #494545",
"s  c #44464A",
"d  c #46484E",
"f  c #484A4D",
"g  c #524E4F",
"h  c #4B4C50",
"j  c #4F5155",
"k  c #565656",
"l  c #5A5153",
"z  c #54565A",
"x  c #57585D",
"c  c #5A5A5D",
"v  c #704F44",
"b  c #6C534A",
"n  c #72554B",
"m  c #6F5A53",
"M  c #7C5F55",
"N  c #735E58",
"B  c #7F655D",
"V  c #5B5C61",
"C  c #5F6166",
"Z  c #57636C",
"A  c #5F636B",
"S  c #626267",
"D  c #6D6465",
"F  c #616368",
"G  c #68686D",
"H  c #6A6C71",
"J  c #6F7076",
"K  c #6C727B",
"L  c #71737B",
"P  c #78767A",
"I  c gray49",
"U  c #8B6B5F",
"Y  c #957567",
"T  c #9C7364",
"R  c #9A7668",
"E  c #9F7C6F",
"W  c #9B7D72",
"Q  c #AB8272",
"!  c #B68C7C",
"~  c #7C7D85",
"^  c #707C8C",
"/  c #867F83",
"(  c #798593",
")  c #84848C",
"_  c #89858C",
"`  c #8D8A8D",
"'  c #848790",
"]  c #868993",
"[  c #8B8B93",
"{  c #908F95",
"}  c #8F919A",
"|  c #93949D",
" . c #BD9788",
".. c #9295A0",
"X. c #949AA7",
"o. c #999AA3",
"O. c #9A9DA9",
"+. c #9EA1AC",
"@. c #A2A4AC",
"#. c #B1ACAB",
"$. c #A7A8B1",
"%. c #ABACB5",
"&. c #AEAFB8",
"*. c #B4B4BD",
"=. c #D89F89",
"-. c #D9A28C",
";. c #D2A491",
":. c #DEA791",
">. c #D1AC9B",
",. c #E1AB95",
"<. c #E1AF9A",
"1. c #E6B19C",
"2. c #E6B8A3",
"3. c #ECBAA5",
"4. c #EFBEA9",
"5. c #DDC4B8",
"6. c #E3C2B1",
"7. c #EFC6B2",
"8. c #EFC8B5",
"9. c #E6CCBC",
"0. c #E9CEBE",
"q. c #F0CBB8",
"w. c #B7B8C0",
"e. c #BCBCC4",
"r. c #C3C3CB",
"t. c #CBCBD2",
"y. c #D1D3D5",
"u. c #D6D5DC",
"i. c #E8D0C0",
"p. c #F6D5C2",
"a. c #FBE0CE",
"s. c #DBDBE1",
"d. c #E0DFE5",
"f. c #E1E1E6",
"g. c #E4E3E9",
"h. c #E9E8EE",
"j. c #F1F1F2",
"k. c #F8F8F7",
"l. c #F9F9F8",
/* pixels */
"` I I I I I I I I I I I I I I I I I I I I I I I I I I I I I I c ",
"I p p p p p p p p p p p H +.r.f.t.*.] c p p p p p p p p p p p 0 ",
"I p p p p p p p p p p X.s.h.l.l.l.l.l.y.] z p p p p p p p p p 0 ",
"I p p p p p p p p p K O.y.g.h.h.t.j.h.u.+.Z p p p p p p p p p 0 ",
"I p p p p p p p p p ^ w.*.r.t.%.) *.%.r.| Z p p p p p p p p p 0 ",
"I p p p p p p p p p j +.| { @.) _ { ( | K p p p p p p p p p p 0 ",
"I p p p p p p p p p p j l T  .9.y.5.#.g p p p p p p p p p p p 0 ",
"I p p p p p p p p p p p u + y >.7.! m e p p p p p p p p p p p 0 ",
"I p p p p p p p p p % X + + * n B 2 . % : p p p p p p p p p p 0 ",
"I p p p p p p p % O * % * * * % @ + % % % O % 9 p p p p p p p 0 ",
"I p p p p p p # % % % + % * - * * % % * * % X < p p p p p p p 0 ",
"I p p p p p p   # % %   O @ # % % % + % % O X   p p p p p p p 0 ",
"I p p p p p p O n 3 #   X $ % @ % % # % % X + X p p p p p p p 0 ",
"I p p p p p p @ ;.W 3 , # + % % # # + @ @ * r = p p p p p p p 0 ",
"I p p p p p 1 W 8.a.q p 7 # O # + % * % X R -.b p p p p p p p 0 ",
"I p p p p p X 9.1.Y 8 p 7 8 p # * * % % 7 Q :.1.> p p p p p p 0 ",
"I p p p p p X i.2.& p p , p ~ ) z J J k c B 3.:., p p p p p p 0 ",
"I p p p p s X i.7.& p p d &.d.g.P i 6 C %.D Q 2.1 p p p p p p 0 ",
"I p p p p p 1 ;.p.Q a X @.g.h.[ 1 A i 6 [ S y :.B * p p p p p 0 ",
"I p p p p p O 2.p.U 2 x t.h.h.H i f A p ) F y -.r 7 p p p p p 0 ",
"I p p p p p p a s a h w.g.h.h.u.%.p { e.e.] 1 3 p p p p p p p 0 ",
"I p p p p p p p p p L u.h.h.h.s.o.h %.y.g.%.9 < p p p p p p p 0 ",
"I p p p p p p p p : %.s.h.g.f.e.( z %.u.h.*.p 5 p p p p p p p 0 ",
"I p p p p p p p , ) e.e.r.r.w...* { &.f.h.e.x ; p p p p p p p 0 ",
"I p p p p p p p V *.e.e.e.e.$.i . $.e.y.t.e.@.6 p p p p p p p 0 ",
"I p p p p p p # %.e.e.e.e.&.' 6 . @.e.e.e.e.@.6 p p p p p p p 0 ",
"I p p p p p p + &.g.s.s.s.e.L 8 o +.*.e.e.e.@.6 p p p p p p p 0 ",
"I p p p p p p - o.w.r.r.%.] $ s o ] *.r.r.e.x , p p p p p p p 0 ",
"I p p p p p p p s ~ ' ] J i p p p f ~ %.*.' 9 9 p p p p p p p 0 ",
"I p p p p p p p p $ 4 % 7 p p p p , * 7 , 6 p p p p a p p p p 0 ",
"I p p p p p p p 7 w ! > p p p p p : v T 4 1 p p p p p p p p p 0 ",
"k 0 8 0 0 0 0 8 . X + + - 7 0 0 0 ,   . . .   1 0 0 0 0 0 0 0 7 "
};
