/* XPM */
static char *pspbawv2[] = {
/* columns rows colors chars-per-pixel */
"32 32 45 1 ",
"  c #4D4B4B",
". c #4E4C4C",
"X c #4E4D4D",
"o c #4F4D4D",
"O c #4F4E4E",
"+ c #504E4E",
"@ c #504F4F",
"# c #514F4F",
"$ c #505050",
"% c #515050",
"& c #525050",
"* c #525151",
"= c #535151",
"- c #535252",
"; c #535353",
": c #545252",
"> c #545353",
", c #555353",
"< c #545454",
"1 c #555454",
"2 c #555555",
"3 c #565555",
"4 c #565656",
"5 c #575656",
"6 c #575757",
"7 c #585757",
"8 c #585858",
"9 c #595858",
"0 c #595959",
"q c #5A5959",
"w c #595A5A",
"e c #5A5A5A",
"r c #5B5A5A",
"t c #5B5B5B",
"y c #5C5C5C",
"u c #5D5C5C",
"i c #5D5D5D",
"p c #5E5E5E",
"a c #5F5E5E",
"s c #5F5F5F",
"d c #606060",
"f c #626262",
"g c #636363",
"h c #646464",
"j c #656565",
/* pixels */
"eeeefhhhhhyhfhhhhfyeeeeeeeeeeeee",
"eeeeeeeeefyyeeeeeeee7777eeeeeeee",
"eeeeeeeeefyyeeeeeeeeeeeeeeeeeeee",
"eeeeeeeeey4eeeeeeeeeeeeeeeeeeeee",
"eeeeeeeeee+eeeeeeeeeeeeeeeeeeeee",
"eeeeeeeeee+eeeeeeeeeeeeeeeeeeeee",
"eeeeeeeee4oeeeeeeeeeeeeeeeeeeeee",
"eeee4::::+ =:::::::444ee4444eeee",
"============4eeeeee:eyyyyyyy4===",
"e4eeeeeeeeeeyyyyyyfeyyyyyyyyyeee",
"eeeeeeeeeeeeeeeeeeyeeeeeeeeeeeee",
"eeeeeeeeeeeeeeeeeee4eeeeeeeeeeee",
"eeeeeeeeeeeeeeeeee4+eeeeeeeeeeee",
"eeeeeeeeeeeeeeeeee4+eeeeeeeeeeee",
"eeeeeeeeeeeeeeeeee4+eeeeeeeeeeee",
"ee46ee4eee44474:::=o4e4446eeeeee",
"=====4eyyeeye4eeeeeeyyyyye++++++",
"eeeeeeyyyyyyf7yyyyyyyyyyyyeeeeee",
"eeeeeeeeeeeef4eeeeeeeeeeeeeeeeee",
"eeeee4eee77ef4eeeeeeeeeeeeeeeeee",
"eeeeeee44eeey4eeeeeeeeeeeeeeeeee",
"eeeeeeeeeeee:=eeeeeeeeeeeeeeeeee",
"eeeeeeeeeeee:=eeeeeeeeeeeeeeeeee",
"6eee4e7e4:::+=e4ee4444ee444eee44",
"o+++++++ooooo4yeyyyeyyeeyyyyyyyy",
"eeeeeeeeeeeeeyyyyyyyyyfyyyyyyyyy",
"eeeeeeeeeeeeeeeeeeeeeey:eeeeeeee",
"eeeeeeeeeeeeeee7eeee7ey=eeeeeeee",
"eeeeeeeeeeeeeeeee744eee=eeeeeeee",
"eeeeeeeeeeeeeeeeeeee7e4+eeeeeeee",
"eeeeeeeeeeeeeeeeeeeeee4+eeeeeeee",
"eeeeeeeeeeeeeeeeeeeeee4+eeeeeeee"
};
