/* XPM */
static char *wrt1wun3[] = {
/* columns rows colors chars-per-pixel */
"16 16 20 1 ",
"  c #525151",
". c #535252",
"X c #545353",
"o c #555454",
"O c #555555",
"+ c #565555",
"@ c #565656",
"# c #575656",
"$ c #575757",
"% c #585757",
"& c #585858",
"* c #595858",
"= c #595959",
"- c #5A5959",
"; c #5A5A5A",
": c #5B5A5A",
"> c #5B5B5B",
", c #5C5C5C",
"< c #5E5E5E",
"1 c #606060",
/* pixels */
";;<<11<<<;;;;;;;",
";;;;;;;;;;;;;;;;",
";;;;;$;;;;;;;;;;",
";;$$X $%$$;;;;;;",
"$$$$$$;;;;;;;;;$",
";;;;;;;;;;;;;;;;",
";;;;;;;;;$;;;;;;",
";;;;;;;%$ ;;;%;;",
"$$$;<<;;;;;<;$$$",
";;;;;;;;;;;;;;;;",
";;;;;;$;;;;;;;;;",
";;;;$$ ;;;;;;;;;",
"$$$$XX$;<<<;;;<<",
";;;;;;;;;;;;;;;;",
";;;;;;;;;%;$;;;;",
";;;;;;;;;;;X;;;;"
};
