/* XPM */
static char *lyx3jw32[] = {
/* columns rows colors chars-per-pixel */
"64 64 58 1 ",
"  c #4A4949",
". c #4B4949",
"X c #4A4A4A",
"o c #4B4A4A",
"O c #4B4B4B",
"+ c #4C4949",
"@ c #4C4A4A",
"# c #4C4B4B",
"$ c #4D4B4B",
"% c #4C4C4C",
"& c #4D4C4C",
"* c #4D4D4D",
"= c #4E4C4C",
"- c #4F4C4C",
"; c #4E4E4E",
": c #4F4F4F",
"> c #504D4D",
", c #514D4D",
"< c #514E4E",
"1 c #524F4F",
"2 c #505050",
"3 c #515151",
"4 c #535050",
"5 c #535151",
"6 c #525252",
"7 c #545151",
"8 c #555252",
"9 c #545353",
"0 c #555353",
"q c #565353",
"w c #565454",
"e c #565555",
"r c #575555",
"t c #565656",
"y c #575656",
"u c #575757",
"i c #585656",
"p c #585757",
"a c #585858",
"s c #595858",
"d c #595959",
"f c #5A5959",
"g c #5A5A5A",
"h c #5B5B5B",
"j c #5D5B5B",
"k c #5C5C5C",
"l c #5D5C5C",
"z c #5D5D5D",
"x c #5F5F5F",
"c c #646464",
"v c #656565",
"b c #666666",
"n c #676767",
"m c #696969",
"M c #6A6A6A",
"N c #6B6B6B",
"B c #6D6D6D",
"V c #6E6E6E",
/* pixels */
"gggggggkNBBBBBBBBBBN3NBBBBBBBBBBBBBBnggggggggggggggggggggggggggg",
"ggggggggkkkkkkkkkkkN3Nkkkkkkkkkkkkkkgggpgggggggggggggggggggggggg",
"ggggggggggggggggggkN3Nkggggggggggggggggrrrgggggggggggggggggggggg",
"ggggggggggggggggggkN3Nkggggggggggggggggggrrrrrrrpggggggggggggggg",
"ggggggggggggggggggkN3Nkggggggggggggggggggggggggggggggggggggggggg",
"ggggggggggggggggggkN3Nkggggggggggggggggggggggggggggggggggggggggg",
"ggggggggggggggggggkn3nkggggggggggggggggggggggggggggggggggggggggg",
"ggggggggggggggggggggO3gggggggggggggggggggggggggggggggggggggggggg",
"ggggggggggggggggggggO,gggggggggggggggggggggggggggggggggggggggggg",
"ggggggggggggggggggggO,gggggggggggggggggggggggggggggggggggggggggg",
"ggggggggggggggggggggO,gggggggggggggggggggggggggggggggggggggggggg",
"ggggggggggggggggggggO,gggggggggggggggggggggggggggggggggggggggggg",
"ggggggggggggggggggg9O,gggggggggggggggggggggggggggggggggggggggggg",
"ggggggggggggggggggg,O,gggggggggggggggggggggggggggggggggggggggggg",
"ggggggggggggggggggp,O,rggggggggggggggggggggggggggggggggggggggggg",
"ggggggggg9,,,,,,,,,-O-,,,,,,,,,,,,,,,,,9ggggggggggggrrrggggggggg",
"-###-----OOOOOOOOOOOOOOOO-------------OO------------------##----",
"grrrgggggggggggggggggggggnNNNNNNNNNNNNgaNNNNNNNNNNNNNNNNngragggg",
"gr9rgggggggggggggggggggggkkkkkkkkkkkknk3kkkkkkkkkkkkkkkkkggggggg",
"ggg9gggggggggggggggggggggggggggggggggnk3gggggggggggggggggggggggg",
"gggr9pgggggggggggggggggggggggggggggggnk3gggggggggggggggggggggggg",
"gggggggggggggggggggggggggggggggggggggnk3gggggggggggggggggggggggg",
"gggggggggggggggggggggggggggggggggggggng3gggggggggggggggggggggggg",
"gggggggggggggggggggggggggggggggggggggr-3gggggggggggggggggggggggg",
"ggggggggggggggggggggggggggggggggggggg9@3gggggggggggggggggggggggg",
"gggggggggggggggggggggggggggggggggggggr@3gggggggggggggggggggggggg",
"gggggggggggggggggggggggggggggggggggggr@3gggggggggggggggggggggggg",
"gggggggggggggggggggggggggggggggggggggr@3gggggggggggggggggggggggg",
"ggggggggggggggggggggggggggggggggggggg9@3gggggggggggggggggggggggg",
"ggggggggggggggggggggggggggggggggggggg9@3gggggggggggggggggggggggg",
"ggggggggggggggggggggggggggggggggggggg9@3gggggggggggggggggggggggg",
"ggggggggggggrrgggggggggrgggg9,,,,,,,,,O3gggggggrrrgggggggggggggg",
"----------##--------------O-------------------------OOOOOOOOOOOO",
"ggggggggggrgnNNNNNNNNNNNNn:nNNNNNNNNNNNNNNNNNNNNNNNj,,,,,,,,,,,,",
"ggggggggggggkkkkkkkkkkkkxN-gkkkkkkkkkkkkkkkkkkkkkkkggggggggggggg",
"ggggggggggggggggggggggggkN-agggggggggggggggggggggggggggggggggggg",
"ggggggggggggggggggggggggkN-agggggggggggggggggggggggggggggggggggg",
"gggggggggggggggggggggrpgkN-agggggggggggggggggggggggggggggggggggg",
"gggggggggprgggggggggr9ggkN-agggggggggggggggggggggggggggggggggggg",
"ggggggggrrr9rgggpr9rpgggkN-agggggggggggggggggggggggggggggggggggg",
"ggggggggggggrrr99gggggggkN-ggggggggggggggggggggggggggggggggggggg",
"gggggggggggggggrrggggggggj-ggggggggggggggggggggggggggggggggggggg",
"ggggggggggggggggggggggggg,Oggggggggggggggggggggggggggggggggggggg",
"ggggggggggggggggggggggggg,Oggggggggggggggggggggggggggggggggggggg",
"ggggggggggggggggggggggggg,Oggggggggggggggggggggggggggggggggggggg",
"ggggggggggggggggggggggggg,Oggggggggggggggggggggggggggggggggggggg",
"ggggggggggggggggggggggggp,Oggggggggggggggggggggggggggggggggggggg",
"gggggggggggggggggr,,,,,,,-Orgggagggggggrrrgggggggggrrrggggggggga",
"OOOOOOOOOOOOOOOOOOOOOOOOOOO-------------------------------------",
",,,,,,,,,,,,,,,,,,,,,,,,,,kNNNNNNNNNNNNNNNNNNggNNNNNNNNNNNNNNNNN",
"gggggggggggggggggggggggggggkkkkkkkkkkkkkkkkknkknkkkkkkkkkkkkkkkk",
"ggggggggggggggggggggggggggggggggggggggggggggnkgngggggggggggggggg",
"ggggggggggggggggggggggggggggggggggggggggggggnk@rgggggggggggggggg",
"ggggggggggggggggggggggggggggggggggggggggggggnk@9gggggggggggggggg",
"ggggggggggggggggggggggggggggggggggggggggggggnk@rgggggggggggggggg",
"gggggggggggggggggggggggggggggprrrrggggggr9pgnk@9gggggggggggggggg",
"gggggggggggggggggggggggggggggggggrrggrr9rgggngO9gggggggggggggggg",
"gggggggggggggggggggggggggggggggggggr39rgggggg3@9gggggggggggggggg",
"ggggggggggggggggggggggggggggggggggggggrrrrggg3@rgggggggggggggggg",
"gggggggggggggggggggggggggggggggggggggggggrggg3@rgggggggggggggggg",
"ggggggggggggggggggggggggggggggggggggggggggggg3@rgggggggggggggggg",
"ggggggggggggggggggggggggggggggggggggggggggggg3@rgggggggggggggggg",
"ggggggggggggggggggggggggggggggggggggggggggggg3@rgggggggggggggggg",
"ggggggggggggggggggggggggggggggggggggggggggggg3@rgggggggggggggggg"
};
